<svg class="animated" id="freepik_stories-ok" xmlns="http://www.w3.org/2000/svg" viewBox="0 0 500 500" version="1.1" xmlns:xlink="http://www.w3.org/1999/xlink" xmlns:svgjs="http://svgjs.com/svgjs"><style>svg#freepik_stories-ok:not(.animated) .animable {opacity: 0;}svg#freepik_stories-ok.animated #freepik--background-complete--inject-229 {animation: 1s 1 forwards cubic-bezier(.36,-0.01,.5,1.38) slideDown,1.5s Infinite  linear floating;animation-delay: 0s,1s;}svg#freepik_stories-ok.animated #freepik--OK--inject-229 {animation: 1s 1 forwards cubic-bezier(.36,-0.01,.5,1.38) lightSpeedLeft,1.5s Infinite  linear shake;animation-delay: 0s,1s;}svg#freepik_stories-ok.animated #freepik--Character--inject-229 {animation: 1s 1 forwards cubic-bezier(.36,-0.01,.5,1.38) lightSpeedRight;animation-delay: 0s;}            @keyframes slideDown {                0% {                    opacity: 0;                    transform: translateY(-30px);                }                100% {                    opacity: 1;                    transform: translateY(0);                }            }                    @keyframes floating {                0% {                    opacity: 1;                    transform: translateY(0px);                }                50% {                    transform: translateY(-10px);                }                100% {                    opacity: 1;                    transform: translateY(0px);                }            }                    @keyframes lightSpeedLeft {              from {                transform: translate3d(-50%, 0, 0) skewX(20deg);                opacity: 0;              }              60% {                transform: skewX(-10deg);                opacity: 1;              }              80% {                transform: skewX(2deg);              }              to {                opacity: 1;                transform: translate3d(0, 0, 0);              }            }                    @keyframes shake {                10%, 90% {                    transform: translate3d(-1px, 0, 0);                  }                  20%, 80% {                    transform: translate3d(2px, 0, 0);                  }                  30%, 50%, 70% {                    transform: translate3d(-4px, 0, 0);                  }                  40%, 60% {                    transform: translate3d(4px, 0, 0);                  }            }                    @keyframes lightSpeedRight {              from {                transform: translate3d(50%, 0, 0) skewX(-20deg);                opacity: 0;              }              60% {                transform: skewX(10deg);                opacity: 1;              }              80% {                transform: skewX(-2deg);              }              to {                opacity: 1;                transform: translate3d(0, 0, 0);              }            }        </style><g id="freepik--background-complete--inject-229" class="animable" style="transform-origin: 250px 226.46px;"><rect y="382.4" width="500" height="0.25" style="fill: rgb(235, 235, 235); transform-origin: 250px 382.525px;" id="el5eexskex0g8" class="animable"></rect><rect x="52.46" y="391.92" width="33.12" height="0.25" style="fill: rgb(235, 235, 235); transform-origin: 69.02px 392.045px;" id="eld46dtzeojas" class="animable"></rect><rect x="145.33" y="389.21" width="34.5" height="0.25" style="fill: rgb(235, 235, 235); transform-origin: 162.58px 389.335px;" id="eltonjm2w4a1k" class="animable"></rect><rect x="76.08" y="396.75" width="55.42" height="0.25" style="fill: rgb(235, 235, 235); transform-origin: 103.79px 396.875px;" id="elulpzoq7vdg" class="animable"></rect><rect x="405.64" y="397.67" width="43.19" height="0.25" style="fill: rgb(235, 235, 235); transform-origin: 427.235px 397.795px;" id="elnb4q4a5823e" class="animable"></rect><rect x="370.43" y="391.42" width="22.9" height="0.25" style="fill: rgb(235, 235, 235); transform-origin: 381.88px 391.545px;" id="elhfm409p4az" class="animable"></rect><rect x="195.63" y="395.43" width="93.68" height="0.25" style="fill: rgb(235, 235, 235); transform-origin: 242.47px 395.555px;" id="eln201c1bekv" class="animable"></rect><path d="M237,337.8H43.91a5.71,5.71,0,0,1-5.7-5.71V60.66A5.71,5.71,0,0,1,43.91,55H237a5.71,5.71,0,0,1,5.71,5.71V332.09A5.71,5.71,0,0,1,237,337.8ZM43.91,55.2a5.46,5.46,0,0,0-5.45,5.46V332.09a5.46,5.46,0,0,0,5.45,5.46H237a5.47,5.47,0,0,0,5.46-5.46V60.66A5.47,5.47,0,0,0,237,55.2Z" style="fill: rgb(235, 235, 235); transform-origin: 140.46px 196.4px;" id="elpj3mreu1tq" class="animable"></path><path d="M453.31,337.8H260.21a5.72,5.72,0,0,1-5.71-5.71V60.66A5.72,5.72,0,0,1,260.21,55h193.1A5.71,5.71,0,0,1,459,60.66V332.09A5.71,5.71,0,0,1,453.31,337.8ZM260.21,55.2a5.47,5.47,0,0,0-5.46,5.46V332.09a5.47,5.47,0,0,0,5.46,5.46h193.1a5.47,5.47,0,0,0,5.46-5.46V60.66a5.47,5.47,0,0,0-5.46-5.46Z" style="fill: rgb(235, 235, 235); transform-origin: 356.75px 196.4px;" id="elk25kb9z0ddq" class="animable"></path><rect x="283.42" y="251.59" width="28.34" height="122.9" style="fill: rgb(240, 240, 240); transform-origin: 297.59px 313.04px;" id="els744eu25ls" class="animable"></rect><rect x="288.86" y="374.49" width="139.75" height="7.79" style="fill: rgb(240, 240, 240); transform-origin: 358.735px 378.385px;" id="elqau1t9mrff9" class="animable"></rect><g id="el0bfr7h2vdnh4"><rect x="311.76" y="251.59" width="122.29" height="122.9" style="fill: rgb(245, 245, 245); transform-origin: 372.905px 313.04px; transform: rotate(180deg);" class="animable" id="elrljf5por8u"></rect></g><g id="ellpod85uah4e"><rect x="322.9" y="266.72" width="100.01" height="40.31" style="fill: rgb(240, 240, 240); transform-origin: 372.905px 286.875px; transform: rotate(180deg);" class="animable" id="elz0senu81zud"></rect></g><g id="elpt7iacy2jkj"><rect x="322.9" y="319.05" width="100.01" height="40.31" style="fill: rgb(240, 240, 240); transform-origin: 372.905px 339.205px; transform: rotate(180deg);" class="animable" id="elg2tucowtkb9"></rect></g><path d="M384.13,270.12H361.68a2.78,2.78,0,0,1-2.77-2.77h0a2.77,2.77,0,0,1,2.77-2.76h22.45a2.77,2.77,0,0,1,2.77,2.76h0A2.78,2.78,0,0,1,384.13,270.12Z" style="fill: rgb(245, 245, 245); transform-origin: 372.905px 267.355px;" id="elxuxuqde8bqi" class="animable"></path><path d="M384.13,322.45H361.68a2.77,2.77,0,0,1-2.77-2.76h0a2.77,2.77,0,0,1,2.77-2.76h22.45a2.77,2.77,0,0,1,2.77,2.76h0A2.77,2.77,0,0,1,384.13,322.45Z" style="fill: rgb(245, 245, 245); transform-origin: 372.905px 319.69px;" id="el62rl9fbr812" class="animable"></path><rect x="321.34" y="82.08" width="50.96" height="55.58" style="fill: rgb(224, 224, 224); transform-origin: 346.82px 109.87px;" id="eliws4l98dpn" class="animable"></rect><rect x="323.06" y="82.08" width="52.29" height="55.58" style="fill: rgb(245, 245, 245); transform-origin: 349.205px 109.87px;" id="elsfj8er6xe4" class="animable"></rect><g id="elh941c8tpd5r"><rect x="325.79" y="88.11" width="46.82" height="43.52" style="fill: rgb(255, 255, 255); transform-origin: 349.2px 109.87px; transform: rotate(90deg);" class="animable" id="el8hcq34j7pce"></rect></g><path d="M354.53,118.22l5.16-8.94a6.15,6.15,0,0,0-5.32-9.23H344a6.16,6.16,0,0,0-5.33,9.23l5.17,8.94A6.15,6.15,0,0,0,354.53,118.22Z" style="fill: rgb(245, 245, 245); transform-origin: 349.184px 110.689px;" id="eltftq950f1" class="animable"></path><rect x="94.81" y="178.87" width="31.47" height="203.53" style="fill: rgb(224, 224, 224); transform-origin: 110.545px 280.635px;" id="elgzm0z43sp5c" class="animable"></rect><polygon points="206.48 382.4 101.11 382.4 90.04 131.89 195.41 131.89 206.48 382.4" style="fill: rgb(230, 230, 230); transform-origin: 148.26px 257.145px;" id="elr1xhaxwzw7n" class="animable"></polygon><polygon points="221.85 382.4 105.3 382.4 94.23 131.89 210.78 131.89 221.85 382.4" style="fill: rgb(240, 240, 240); transform-origin: 158.04px 257.145px;" id="el8kascqein25" class="animable"></polygon><polygon points="116.71 370.12 107.38 144.17 199.37 144.17 208.7 370.12 116.71 370.12" style="fill: rgb(255, 255, 255); transform-origin: 158.04px 257.145px;" id="elfb8621msb8v" class="animable"></polygon><polygon points="156.23 370.12 124.96 144.17 134.77 144.17 166.04 370.12 156.23 370.12" style="fill: rgb(250, 250, 250); transform-origin: 145.5px 257.145px;" id="el0tfu3lu3sdhl" class="animable"></polygon><polygon points="170.2 370.12 138.93 144.17 155.66 144.17 186.93 370.12 170.2 370.12" style="fill: rgb(250, 250, 250); transform-origin: 162.93px 257.145px;" id="elxs556ugcvjh" class="animable"></polygon><path d="M378.7,246.52H381c0-4.74,0-16.77.24-44.34.41-50,1.21-53,1.21-53L377,172.24C373.49,197.78,378,223.45,378.7,246.52Z" style="fill: rgb(230, 230, 230); transform-origin: 379.064px 197.85px;" id="ell2fgajdhzgc" class="animable"></path><path d="M374.15,168.8c-7.89-9.4-24.75-12.14-42-14.48-6.77-.92,17.81,14.56,29.82,25.56,9.34,8.54,15.3,10.9,17.86,19.41C381.16,188.68,380.94,176.9,374.15,168.8Z" style="fill: rgb(230, 230, 230); transform-origin: 355.732px 176.785px;" id="elmeotr920u7" class="animable"></path><path d="M384.61,185.6c7.89-9.4,24.74-12.14,42-14.48,6.78-.91-17.8,14.57-29.82,25.56-9.33,8.55-15.3,10.91-17.86,19.42C377.6,205.48,377.81,193.7,384.61,185.6Z" style="fill: rgb(230, 230, 230); transform-origin: 403.028px 193.591px;" id="elt25dc7myros" class="animable"></path><path d="M381.23,147c5.92-11.24,20.8-21.82,37.5-25.83,6.56-1.58-15.19,20.75-23.45,35.15C388.86,167.46,380.34,180.6,379,190,377,171.34,375.32,158.2,381.23,147Z" style="fill: rgb(230, 230, 230); transform-origin: 398.545px 155.545px;" id="ell0fauamqo4m" class="animable"></path><path d="M380.53,251.91h0c-7,0-12.87-3.53-13.27-8l-1.17-7.72H395l-1.17,7.72C393.4,248.38,387.58,251.91,380.53,251.91Z" style="fill: rgb(240, 240, 240); transform-origin: 380.545px 244.05px;" id="elicjrww98swa" class="animable"></path><polygon points="396.85 239.11 364.21 239.11 363.28 230.51 397.79 230.51 396.85 239.11" style="fill: rgb(240, 240, 240); transform-origin: 380.535px 234.81px;" id="eld8dsllg27nv" class="animable"></polygon></g><g id="freepik--Shadow--inject-229" class="animable" style="transform-origin: 250px 416.24px;"><ellipse id="freepik--path--inject-229" cx="250" cy="416.24" rx="193.89" ry="11.32" style="fill: rgb(245, 245, 245); transform-origin: 250px 416.24px;" class="animable"></ellipse></g><g id="freepik--OK--inject-229" class="animable" style="transform-origin: 175.92px 165.42px;"><path d="M280.92,154.5a105,105,0,0,0-210,0c0,45.53,28.12,82.75,69.49,98.84l72.15,28L198.87,257A105.05,105.05,0,0,0,280.92,154.5Z" style="fill: #92E3A9; transform-origin: 175.92px 165.42px;" id="el5afprfb5pkh" class="animable"></path><path d="M173.57,250a97.84,97.84,0,1,1,97.85-97.84A97.95,97.95,0,0,1,173.57,250Zm0-194.68a96.84,96.84,0,1,0,96.85,96.84A97,97,0,0,0,173.57,55.32Z" style="fill: rgb(255, 255, 255); transform-origin: 173.58px 152.16px;" id="el45o2gd2q41o" class="animable"></path><path d="M104.92,159.27q0-20.34,8.27-32.57a30.58,30.58,0,0,1,23.05-13.83q15.13-1.64,23.33,8.61t8.19,30.3q0,14.57-3.58,24.27a37.41,37.41,0,0,1-10.34,15.62,29.75,29.75,0,0,1-16.86,7q-10.26,1.11-17-2.64t-10.9-13Q104.92,173.83,104.92,159.27Zm18.74-1.92q0,12.59,3.41,17.71a9.31,9.31,0,0,0,9.29,4.49,11.9,11.9,0,0,0,9.35-6.4Q149,167.4,149,153.47q0-11.73-3.45-16.76a9.44,9.44,0,0,0-9.38-4.4q-5.66.62-9.1,6.48T123.66,157.35Z" style="fill: rgb(255, 255, 255); transform-origin: 136.34px 155.784px;" id="elx8cxx2gp7ba" class="animable"></path><path d="M177.94,109.77l18.74-2v31.39l19.63-33.51,24.93-2.71-22.13,33.75,23.12,49.21-23.08,2.5-12.79-32.77-9.68,14.94V190.8l-18.74,2Z" style="fill: rgb(255, 255, 255); transform-origin: 210.085px 147.87px;" id="eljkojcki4ffj" class="animable"></path><path d="M85.62,74.46a7.63,7.63,0,1,1,7.62-7.63A7.64,7.64,0,0,1,85.62,74.46Zm0-14.25a6.63,6.63,0,1,0,6.62,6.62A6.63,6.63,0,0,0,85.62,60.21Z" style="fill: #92E3A9; transform-origin: 85.61px 66.83px;" id="eldsicrlro31i" class="animable"></path><path d="M159.79,277.6a5.1,5.1,0,1,1,5.1-5.09A5.1,5.1,0,0,1,159.79,277.6Zm0-9.19a4.1,4.1,0,1,0,4.1,4.1A4.1,4.1,0,0,0,159.79,268.41Z" style="fill: #92E3A9; transform-origin: 159.79px 272.5px;" id="elkeuh1fi1rr" class="animable"></path><path d="M254.82,72.12A1.84,1.84,0,1,1,253,70.28,1.84,1.84,0,0,1,254.82,72.12Z" style="fill: #92E3A9; transform-origin: 252.98px 72.1199px;" id="elmpw3ee8xdon" class="animable"></path><path d="M141.22,270.67a1.84,1.84,0,1,1-1.83-1.84A1.84,1.84,0,0,1,141.22,270.67Z" style="fill: #92E3A9; transform-origin: 139.38px 270.67px;" id="elbyceiy153mh" class="animable"></path></g><g id="freepik--Character--inject-229" class="animable" style="transform-origin: 310.127px 244.449px;"><polygon points="328.42 386.28 334.44 409.84 345.73 407.07 339.7 383.5 328.42 386.28" style="fill: rgb(255, 139, 123); transform-origin: 337.075px 396.67px;" id="el0u5egjxztad" class="animable"></polygon><path d="M346,402.26,333.21,405a.81.81,0,0,0-.65.88l.88,9.36a1.7,1.7,0,0,0,2.05,1.46c4-1,5.21-1.54,10.27-2.64,5.92-1.3,8-.95,15-2.47,4.2-.92,4-5.32,2.13-5.33a28.34,28.34,0,0,1-14.18-3.78A3.66,3.66,0,0,0,346,402.26Z" style="fill: rgb(38, 50, 56); transform-origin: 348.358px 409.418px;" id="eltax7idp41lq" class="animable"></path><g id="elsblf6yzj1is"><polygon points="328.41 386.29 331.52 398.43 342.81 395.66 339.7 383.51 328.41 386.29" style="opacity: 0.2; transform-origin: 335.61px 390.97px;" class="animable" id="eljro07rgks6f"></polygon></g><path d="M308.3,295.52c-13.44-39.55-24.09-86.2-24.09-86.2l38.35-2.42s5.65,60.56,8.6,88.48c3.06,29,12.59,94.55,12.59,94.55l-17.3,3.51S310.22,331.71,308.3,295.52Z" style="fill: #92E3A9; transform-origin: 313.98px 300.17px;" id="ela5l8gfmtfmd" class="animable"></path><g id="elyc8o51iq8ss"><path d="M301.9,231.3l-9.31,11.51c2.37,8.88,5.15,18.86,8.19,29.07A200.08,200.08,0,0,0,301.9,231.3Z" style="opacity: 0.2; transform-origin: 297.519px 251.59px;" class="animable" id="el13c31h8778kj"></path></g><path d="M343.49,392.36l-15.86,3.48a1.33,1.33,0,0,1-1.53-.86l-1.75-5.12a1.32,1.32,0,0,1,.94-1.7l17.22-4.05a1.31,1.31,0,0,1,1.61,1.19l.4,5.69A1.3,1.3,0,0,1,343.49,392.36Z" style="fill: rgb(38, 50, 56); transform-origin: 334.403px 389.972px;" id="el4dla7qfc3w" class="animable"></path><g id="elo3uu9681gmp"><path d="M343.49,392.36l-15.86,3.48a1.33,1.33,0,0,1-1.53-.86l-1.75-5.12a1.32,1.32,0,0,1,.94-1.7l17.22-4.05a1.31,1.31,0,0,1,1.61,1.19l.4,5.69A1.3,1.3,0,0,1,343.49,392.36Z" style="fill: rgb(255, 255, 255); opacity: 0.1; transform-origin: 334.403px 389.972px;" class="animable" id="elq96d8b6zunh"></path></g><polygon points="265.16 385.46 264.45 409.77 276.08 409.61 276.79 385.3 265.16 385.46" style="fill: rgb(255, 139, 123); transform-origin: 270.62px 397.535px;" id="elw683h16mmd" class="animable"></polygon><path d="M276.36,404.62,264,404.8a.81.81,0,0,0-.81.73l-1,9.35a1.71,1.71,0,0,0,1.72,1.84c4.11-.13,5.41-.47,10.59-.55,6.06-.1,7.37.66,14.47.55,4.3-.07,5-4.42,3.15-4.8A28.4,28.4,0,0,1,279,405.4,3.7,3.7,0,0,0,276.36,404.62Z" style="fill: rgb(38, 50, 56); transform-origin: 277.633px 410.667px;" id="el6v5ekdgcc3l" class="animable"></path><g id="el0cxk9rfgso2q"><polygon points="265.16 385.47 264.79 398 276.43 397.83 276.79 385.3 265.16 385.47" style="opacity: 0.2; transform-origin: 270.79px 391.65px;" class="animable" id="elrq8sgetshva"></polygon></g><path d="M268.06,294.72c3.28-41.61.51-64.05,5.34-84.72l34.9-2.16S297.47,269,291.48,296.66s-12.41,94.85-12.41,94.85l-17.15.21S259.82,327.18,268.06,294.72Z" style="fill: #92E3A9; transform-origin: 284.99px 299.78px;" id="elp073y3bjrwp" class="animable"></path><path d="M279,394.59l-16.22.25a1.33,1.33,0,0,1-1.34-1.23l-.35-5.36a1.32,1.32,0,0,1,1.27-1.4l17.67-.55a1.32,1.32,0,0,1,1.33,1.57l-1.09,5.65A1.31,1.31,0,0,1,279,394.59Z" style="fill: rgb(38, 50, 56); transform-origin: 271.236px 390.57px;" id="elxtj9yj37ytq" class="animable"></path><g id="elab6dke2dzmb"><path d="M279,394.59l-16.22.25a1.33,1.33,0,0,1-1.34-1.23l-.35-5.36a1.32,1.32,0,0,1,1.27-1.4l17.67-.55a1.32,1.32,0,0,1,1.33,1.57l-1.09,5.65A1.31,1.31,0,0,1,279,394.59Z" style="fill: rgb(255, 255, 255); opacity: 0.1; transform-origin: 271.236px 390.57px;" class="animable" id="eloj0x3vctaxh"></path></g><path d="M321.79,137.35l2,3.28L326,144c1.43,2.21,2.92,4.37,4.41,6.48s3.07,4.11,4.66,6a32.13,32.13,0,0,0,4.72,4.58l-4.89-.73a30.8,30.8,0,0,0,5.79-1.8,64,64,0,0,0,6-2.94c2-1.09,4-2.3,6-3.56s4-2.63,5.89-3.91l.16-.1a3.49,3.49,0,0,1,4.76,5,60.25,60.25,0,0,1-5.11,6,68.19,68.19,0,0,1-5.77,5.33,54.85,54.85,0,0,1-6.63,4.67,36.92,36.92,0,0,1-7.93,3.6,5.68,5.68,0,0,1-4.51-.51l-.38-.22a37.93,37.93,0,0,1-7.82-6.19q-1.63-1.64-3.13-3.32t-2.85-3.43c-1.84-2.3-3.53-4.66-5.14-7.07-.8-1.2-1.59-2.41-2.34-3.65s-1.47-2.44-2.23-3.82a7,7,0,0,1,12-7.07Z" style="fill: rgb(255, 139, 123); transform-origin: 336.628px 153.679px;" id="el3rileytorcw" class="animable"></path><path d="M306.63,124c13.55,1.54,23.8,22.52,23.8,22.52l-14,14.87s-6.22-7.42-12.91-16.81C296.25,134.38,295.91,122.79,306.63,124Z" style="fill: rgb(38, 50, 56); transform-origin: 314.359px 142.651px;" id="elupgy075zf7c" class="animable"></path><path d="M305.56,127.17c-5.21-1.85-21.53.92-21.53.92,4.57,5.85,7.61,54.31,8,82.18,4.95.68,16.71.59,21.12-.43C312.6,198.9,309,146.62,305.56,127.17Z" style="fill: rgb(255, 255, 255); transform-origin: 298.59px 168.62px;" id="el6dpmk8optq7" class="animable"></path><path d="M323.36,141.85a20.73,20.73,0,0,0-20.66-18.22,143.9,143.9,0,0,0-29,3.2,11.37,11.37,0,0,0-8.65,13.76c7.18,30.13,5.29,58.71,7.21,72a93.12,93.12,0,0,0,23.93,2.75s-.29-3.7-.65-9.69c-.13-2.34-3.14-72.48-7.83-78.51,0,0,10.06-1,15.27.82,3.87,21.84,7.49,87.41,7.49,87.42,8.23-.59,14-5.39,13.89-6.76C326,181.81,325.2,157.54,323.36,141.85Z" style="fill: rgb(38, 50, 56); transform-origin: 294.993px 169.505px;" id="elfppm1a6r1lo" class="animable"></path><path d="M282.35,102.48c1.53,5.89,3.32,16.25.51,21.91a2.69,2.69,0,0,0,.7,3.34c3.61,2.79,8.25,5.38,15,5,7.09-.43,6.56-4.67,4.76-7.5a2.59,2.59,0,0,0-1.67-1.18c-6.7-1.38-6.78-6.71-5.82-11.83Z" style="fill: rgb(255, 139, 123); transform-origin: 293.412px 117.624px;" id="elzqagr6o4v8" class="animable"></path><g id="eljebcrld9kr"><path d="M287.84,106.44l8,5.74a21.33,21.33,0,0,0-.42,3.76c-2.89-.13-7-2.89-7.5-5.86A10.16,10.16,0,0,1,287.84,106.44Z" style="opacity: 0.2; transform-origin: 291.777px 111.19px;" class="animable" id="el1zcwzib59uy"></path></g><path d="M304.47,95c1.81-1.2,2.77-9.47,0-12.15,2.86-2.52,1.21-8.13-2.71-9.08s-6.8,1.63-11.85-1.61c-.87,1.18-.37,2.69,1.14,3.57C293.23,77,304.47,95,304.47,95Z" style="fill: rgb(38, 50, 56); transform-origin: 297.845px 83.58px;" id="elqvy0mnttl4" class="animable"></path><path d="M279.89,92.48c1.36,9,1.69,14.39,6.69,18.61,7.53,6.35,18.38,1.1,19.75-8.18,1.24-8.35-1.19-21.72-10.4-24.48A12.59,12.59,0,0,0,279.89,92.48Z" style="fill: rgb(255, 139, 123); transform-origin: 293.181px 95.8899px;" id="ele5ih18c1hn" class="animable"></path><path d="M282.65,100.12c2.41-1.13,1.09-10.79.5-12.69,6.33.88,24.13-3.87,18.27-10.79-4.28-5-16.77.72-22.09-3.59-1.58,1.69.62,3.69.62,3.69s-8.45,2-5,8C268.09,84.43,272.79,101.12,282.65,100.12Z" style="fill: rgb(38, 50, 56); transform-origin: 287.146px 86.6066px;" id="eltpwlinfh9ki" class="animable"></path><path d="M276.54,80.92c-3.33,2.61-4.64,1.44-6.57-.32-.46,5.13,3.62,5.79,5.51,5.26C276.72,84.26,276.54,80.92,276.54,80.92Z" style="fill: rgb(38, 50, 56); transform-origin: 273.242px 83.3057px;" id="eld2orsv5dgqv" class="animable"></path><path d="M276.93,100.78a8.58,8.58,0,0,0,5,3.87c2.65.69,3.65-2,2.64-4.65-.91-2.43-3.39-5.71-5.92-5.2S275.49,98.4,276.93,100.78Z" style="fill: rgb(255, 139, 123); transform-origin: 280.564px 99.7533px;" id="el3jxyxq06bq8" class="animable"></path><path d="M292.31,93.28c.07.74.51,1.3,1,1.25s.82-.68.75-1.42-.51-1.3-1-1.25S292.25,92.54,292.31,93.28Z" style="fill: rgb(38, 50, 56); transform-origin: 293.186px 93.195px;" id="elknzma14eedo" class="animable"></path><path d="M300.64,91.85c.07.74.51,1.3,1,1.26s.82-.69.75-1.43-.51-1.3-1-1.25S300.58,91.11,300.64,91.85Z" style="fill: rgb(38, 50, 56); transform-origin: 301.516px 91.7695px;" id="el55s8awcv7vx" class="animable"></path><path d="M297.67,92.72s2.06,4.11,4.09,6c-1.2,1.35-3.48,1-3.48,1Z" style="fill: rgb(255, 86, 82); transform-origin: 299.715px 96.2404px;" id="elqutpfxoljeh" class="animable"></path><path d="M296,103.32a6,6,0,0,1-4.57-1.57.22.22,0,1,1,.31-.3,5.87,5.87,0,0,0,5.14,1.32.22.22,0,0,1,.26.17.23.23,0,0,1-.18.26A8.39,8.39,0,0,1,296,103.32Z" style="fill: rgb(38, 50, 56); transform-origin: 294.239px 102.345px;" id="elzuen3p7tnt" class="animable"></path><path d="M289.19,92.06a.41.41,0,0,1-.22,0,.45.45,0,0,1-.23-.58,4.4,4.4,0,0,1,3.05-2.6.43.43,0,0,1,.5.36.45.45,0,0,1-.36.51h0a3.48,3.48,0,0,0-2.39,2.08A.43.43,0,0,1,289.19,92.06Z" style="fill: rgb(38, 50, 56); transform-origin: 290.501px 90.4742px;" id="el44smdcrsct6" class="animable"></path><path d="M303.81,87.88a.46.46,0,0,1-.4-.09,3.41,3.41,0,0,0-3-.83.44.44,0,0,1-.54-.3.45.45,0,0,1,.3-.54,4.31,4.31,0,0,1,3.84,1,.45.45,0,0,1,0,.62A.52.52,0,0,1,303.81,87.88Z" style="fill: rgb(38, 50, 56); transform-origin: 301.995px 86.953px;" id="eltlvqo1iv6ek" class="animable"></path><path d="M274.83,146.2l-1.58,3.54-1.57,3.67c-1,2.46-2,4.93-2.95,7.42a136.9,136.9,0,0,0-4.79,15l-.43,1.87-.21.94-.05.23c0,.09,0,0,0,0a.09.09,0,0,0,0,0,6.15,6.15,0,0,0,.2,2.15,27.7,27.7,0,0,0,1,3.34c.4,1.17.86,2.37,1.36,3.57,2,4.82,4.48,9.77,6.82,14.66l.05.09a3.5,3.5,0,0,1-5.66,4,88,88,0,0,1-10.78-13.69,45,45,0,0,1-4.28-8.38,17.79,17.79,0,0,1-1.22-6c0-.35,0-.72.06-1.08l0-.5,0-.28.16-1.12.31-2.23a112.06,112.06,0,0,1,4.33-17.1q1.39-4.14,3-8.16c.55-1.34,1.12-2.67,1.73-4s1.2-2.59,1.93-4a7,7,0,0,1,12.61,6Z" style="fill: rgb(255, 139, 123); transform-origin: 263.046px 172.184px;" id="ellq1klol7ny" class="animable"></path><path d="M272.54,127.15c-15.11,3.81-19.31,23.13-19.31,23.13L272,163.74s4.65-4.87,6.05-16.3C278.72,142,275.6,127,272.54,127.15Z" style="fill: rgb(38, 50, 56); transform-origin: 265.686px 145.444px;" id="el8r8hojtghe3" class="animable"></path><path d="M270.21,200.37l8.73,3.26-6.68,9s-7.55-3.91-6.13-8.26Z" style="fill: rgb(255, 139, 123); transform-origin: 272.446px 206.5px;" id="elp1wnylb6pa" class="animable"></path><path d="M283,212.4l-2.87,2.75a3.23,3.23,0,0,1-4.17.25l-3.73-2.81,6.68-9,4.15,4.16A3.22,3.22,0,0,1,283,212.4Z" style="fill: rgb(255, 139, 123); transform-origin: 278.126px 209.818px;" id="elezpqwb5nh5r" class="animable"></path><path d="M369.43,151.32l-1.07-4.88a2.13,2.13,0,0,0-2.26-1.66h0a10.35,10.35,0,0,0-4.39,1.4l-6,3.56.53,5.66c2.49,3.84,10.27.4,10.27.4l.64-.25A3.69,3.69,0,0,0,369.43,151.32Z" style="fill: rgb(255, 139, 123); transform-origin: 362.612px 150.995px;" id="elbuae87qieps" class="animable"></path><path d="M354.94,151.92c-.37-1.91.46-3.45.27-5.25-.16-1.57.26-3.33-.24-5.47.6-1,2.77-.18,2.8,2.47.67,2.72,3.66,2.33,4.85,2C362.62,145.7,358.58,152.73,354.94,151.92Z" style="fill: rgb(255, 139, 123); transform-origin: 358.732px 146.387px;" id="elvx1n5xjrz6" class="animable"></path></g><defs>     <filter id="active" height="200%">         <feMorphology in="SourceAlpha" result="DILATED" operator="dilate" radius="2"></feMorphology>                <feFlood flood-color="#32DFEC" flood-opacity="1" result="PINK"></feFlood>        <feComposite in="PINK" in2="DILATED" operator="in" result="OUTLINE"></feComposite>        <feMerge>            <feMergeNode in="OUTLINE"></feMergeNode>            <feMergeNode in="SourceGraphic"></feMergeNode>        </feMerge>    </filter>    <filter id="hover" height="200%">        <feMorphology in="SourceAlpha" result="DILATED" operator="dilate" radius="2"></feMorphology>                <feFlood flood-color="#ff0000" flood-opacity="0.5" result="PINK"></feFlood>        <feComposite in="PINK" in2="DILATED" operator="in" result="OUTLINE"></feComposite>        <feMerge>            <feMergeNode in="OUTLINE"></feMergeNode>            <feMergeNode in="SourceGraphic"></feMergeNode>        </feMerge>            <feColorMatrix type="matrix" values="0   0   0   0   0                0   1   0   0   0                0   0   0   0   0                0   0   0   1   0 "></feColorMatrix>    </filter></defs></svg>