<svg class="animated" id="freepik_stories-new-employee" xmlns="http://www.w3.org/2000/svg" viewBox="0 0 500 500" version="1.1" xmlns:xlink="http://www.w3.org/1999/xlink" xmlns:svgjs="http://svgjs.com/svgjs"><style>svg#freepik_stories-new-employee:not(.animated) .animable {opacity: 0;}svg#freepik_stories-new-employee.animated #freepik--background-complete--inject-66 {animation: 1s 1 forwards cubic-bezier(.36,-0.01,.5,1.38) slideRight,1.5s Infinite  linear heartbeat;animation-delay: 0s,1s;}svg#freepik_stories-new-employee.animated #freepik--Shadow--inject-66 {animation: 1s 1 forwards cubic-bezier(.36,-0.01,.5,1.38) fadeIn;animation-delay: 0s;}svg#freepik_stories-new-employee.animated #freepik--Symbol--inject-66 {animation: 1s 1 forwards cubic-bezier(.36,-0.01,.5,1.38) zoomOut,1.5s Infinite  linear shake;animation-delay: 0s,1s;}svg#freepik_stories-new-employee.animated #freepik--character-3--inject-66 {animation: 1s 1 forwards cubic-bezier(.36,-0.01,.5,1.38) lightSpeedRight,1.5s Infinite  linear wind;animation-delay: 0s,1s;}svg#freepik_stories-new-employee.animated #freepik--character-2--inject-66 {animation: 1s 1 forwards cubic-bezier(.36,-0.01,.5,1.38) slideRight,1.5s Infinite  linear wind;animation-delay: 0s,1s;}svg#freepik_stories-new-employee.animated #freepik--character-1--inject-66 {animation: 1s 1 forwards cubic-bezier(.36,-0.01,.5,1.38) zoomIn,1.5s Infinite  linear floating;animation-delay: 0s,1s;}            @keyframes slideRight {                0% {                    opacity: 0;                    transform: translateX(30px);                }                100% {                    opacity: 1;                    transform: translateX(0);                }            }                    @keyframes heartbeat {                0% {                    transform: scale(1);                }                10% {                    transform: scale(1.1);                }                30% {                    transform: scale(1);                }                40% {                    transform: scale(1);                }                50% {                    transform: scale(1.1);                }                60% {                    transform: scale(1);                }                100% {                    transform: scale(1);                }            }                    @keyframes fadeIn {                0% {                    opacity: 0;                }                100% {                    opacity: 1;                }            }                    @keyframes zoomOut {                0% {                    opacity: 0;                    transform: scale(1.5);                }                100% {                    opacity: 1;                    transform: scale(1);                }            }                    @keyframes shake {                10%, 90% {                    transform: translate3d(-1px, 0, 0);                  }                  20%, 80% {                    transform: translate3d(2px, 0, 0);                  }                  30%, 50%, 70% {                    transform: translate3d(-4px, 0, 0);                  }                  40%, 60% {                    transform: translate3d(4px, 0, 0);                  }            }                    @keyframes lightSpeedRight {              from {                transform: translate3d(50%, 0, 0) skewX(-20deg);                opacity: 0;              }              60% {                transform: skewX(10deg);                opacity: 1;              }              80% {                transform: skewX(-2deg);              }              to {                opacity: 1;                transform: translate3d(0, 0, 0);              }            }                    @keyframes wind {                0% {                    transform: rotate( 0deg );                }                25% {                    transform: rotate( 1deg );                }                75% {                    transform: rotate( -1deg );                }            }                    @keyframes zoomIn {                0% {                    opacity: 0;                    transform: scale(0.5);                }                100% {                    opacity: 1;                    transform: scale(1);                }            }                    @keyframes floating {                0% {                    opacity: 1;                    transform: translateY(0px);                }                50% {                    transform: translateY(-10px);                }                100% {                    opacity: 1;                    transform: translateY(0px);                }            }        </style><g id="freepik--background-complete--inject-66" class="animable" style="transform-origin: 250.79px 242.3px;"><path d="M444.71,349.14H264a5.87,5.87,0,0,1-5.86-5.86V80A5.87,5.87,0,0,1,264,74.15H444.71A5.87,5.87,0,0,1,450.57,80V343.28A5.87,5.87,0,0,1,444.71,349.14ZM264,74.4A5.61,5.61,0,0,0,258.35,80V343.28a5.61,5.61,0,0,0,5.61,5.61H444.71a5.61,5.61,0,0,0,5.61-5.61V80a5.61,5.61,0,0,0-5.61-5.61Z" style="fill: rgb(240, 240, 240); transform-origin: 354.355px 211.645px;" id="el8jhlmnalwke" class="animable"></path><path d="M236.28,349.14H55.53a5.87,5.87,0,0,1-5.86-5.86V80a5.87,5.87,0,0,1,5.86-5.86H236.28A5.87,5.87,0,0,1,242.14,80V343.28A5.87,5.87,0,0,1,236.28,349.14ZM55.53,74.4A5.61,5.61,0,0,0,49.92,80V343.28a5.61,5.61,0,0,0,5.61,5.61H236.28a5.61,5.61,0,0,0,5.61-5.61V80a5.61,5.61,0,0,0-5.61-5.61Z" style="fill: rgb(240, 240, 240); transform-origin: 145.905px 211.64px;" id="el8e8lwui9k6j" class="animable"></path><rect x="0.79" y="410.21" width="500" height="0.25" style="fill: rgb(224, 224, 224); transform-origin: 250.79px 410.335px;" id="el325bf590wud" class="animable"></rect><path d="M470.4,291.43h-190a5.82,5.82,0,0,0,5.82,5.82H464.57a5.83,5.83,0,0,0,5.83-5.82Z" style="fill: rgb(224, 224, 224); transform-origin: 375.4px 294.34px;" id="el7qo1r8w8wqm" class="animable"></path><rect x="319.43" y="346.51" width="113.65" height="5.39" style="fill: rgb(224, 224, 224); transform-origin: 376.255px 349.205px;" id="elhmtq7u1rt4o" class="animable"></rect><polygon points="429.06 410.28 444.55 297.25 439.11 297.25 423.62 410.28 429.06 410.28" style="fill: rgb(230, 230, 230); transform-origin: 434.085px 353.765px;" id="el5gclp16veut" class="animable"></polygon><polygon points="441.79 410.28 426.05 297.25 431.49 297.25 447.23 410.28 441.79 410.28" style="fill: rgb(230, 230, 230); transform-origin: 436.64px 353.765px;" id="elt1tif5nl0j" class="animable"></polygon><polygon points="310.74 410.28 326.89 297.25 321.45 297.25 305.3 410.28 310.74 410.28" style="fill: rgb(230, 230, 230); transform-origin: 316.095px 353.765px;" id="elouy5ualqvvb" class="animable"></polygon><polygon points="323.47 410.28 307.98 297.25 313.42 297.25 328.91 410.28 323.47 410.28" style="fill: rgb(230, 230, 230); transform-origin: 318.445px 353.765px;" id="el0nef3n48enj" class="animable"></polygon><rect x="274.02" y="282.08" width="202.75" height="9.38" style="fill: rgb(230, 230, 230); transform-origin: 375.395px 286.77px;" id="el6mvfw0q5ta9" class="animable"></rect><path d="M347.09,282.11h88L436,280c.6-1.35-1-2.71-3.14-2.71H351.71a3.38,3.38,0,0,0-3.14,1.54Z" style="fill: rgb(224, 224, 224); transform-origin: 391.609px 279.693px;" id="ellzjprrpjrs8" class="animable"></path><path d="M459.2,220.87,447.94,268.5a2.82,2.82,0,0,1-2.74,2.17H375.82a2.82,2.82,0,0,1-2.74-3.46l11.26-47.64a2.82,2.82,0,0,1,2.74-2.16h69.38A2.81,2.81,0,0,1,459.2,220.87Z" style="fill: rgb(240, 240, 240); transform-origin: 416.141px 244.04px;" id="elo9dr2llnqdk" class="animable"></path><path d="M425.49,245.9a6.22,6.22,0,0,1-6,5.43,4.77,4.77,0,0,1-4.83-5.43,6.22,6.22,0,0,1,6-5.43A4.77,4.77,0,0,1,425.49,245.9Z" style="fill: rgb(224, 224, 224); transform-origin: 420.075px 245.9px;" id="elwkqas5azz2" class="animable"></path><path d="M389.83,217.41l-12,53.26h-2a2.82,2.82,0,0,1-2.74-3.46l11.26-47.64a2.82,2.82,0,0,1,2.74-2.16Z" style="fill: rgb(224, 224, 224); transform-origin: 381.423px 244.04px;" id="elja32ps39837" class="animable"></path><polygon points="409.93 270.67 407.56 281.98 414.51 281.98 416.88 270.67 409.93 270.67" style="fill: rgb(224, 224, 224); transform-origin: 412.22px 276.325px;" id="eljiicuux5p" class="animable"></polygon><path d="M397.42,280.07l1.42-2a2.7,2.7,0,0,1,2.21-1.14h19.06a2.71,2.71,0,0,1,2.4,1.45l1,1.84a1.29,1.29,0,0,1-1.14,1.88H398.47A1.28,1.28,0,0,1,397.42,280.07Z" style="fill: rgb(224, 224, 224); transform-origin: 410.415px 279.515px;" id="ela4r4tvtxw6j" class="animable"></path><polygon points="369.09 128.8 368.52 127.89 402 106.79 434.67 128.36 434.07 129.26 401.99 108.07 369.09 128.8" style="fill: rgb(240, 240, 240); transform-origin: 401.595px 118.025px;" id="elhp17bhmj4k" class="animable"></polygon><rect x="367.94" y="127.94" width="67.44" height="42.18" style="fill: rgb(224, 224, 224); transform-origin: 401.66px 149.03px;" id="elsbqps7cbb9i" class="animable"></rect><g id="elgioet4sv5jb"><rect x="382.44" y="117.18" width="38.44" height="63.7" style="fill: rgb(255, 255, 255); transform-origin: 401.66px 149.03px; transform: rotate(90deg);" class="animable"></rect></g><rect x="374.79" y="141.86" width="4.07" height="4.07" style="fill: rgb(240, 240, 240); transform-origin: 376.825px 143.895px;" id="elvgfzsxru6e" class="animable"></rect><rect x="381.07" y="141.86" width="4.07" height="4.07" style="fill: rgb(240, 240, 240); transform-origin: 383.105px 143.895px;" id="el022z6ea9dip7" class="animable"></rect><rect x="387.34" y="141.86" width="4.07" height="4.07" style="fill: rgb(240, 240, 240); transform-origin: 389.375px 143.895px;" id="elrqat2byevkb" class="animable"></rect><rect x="393.62" y="141.86" width="4.07" height="4.07" style="fill: rgb(240, 240, 240); transform-origin: 395.655px 143.895px;" id="el658fdcjw026" class="animable"></rect><rect x="399.89" y="141.86" width="4.07" height="4.07" style="fill: rgb(240, 240, 240); transform-origin: 401.925px 143.895px;" id="elj1mi2w5x9ws" class="animable"></rect><rect x="406.17" y="141.86" width="4.07" height="4.07" style="fill: rgb(240, 240, 240); transform-origin: 408.205px 143.895px;" id="elwwvf0mjir6k" class="animable"></rect><rect x="412.44" y="141.86" width="4.07" height="4.07" style="fill: rgb(240, 240, 240); transform-origin: 414.475px 143.895px;" id="el1t8ouaeuoay" class="animable"></rect><rect x="418.72" y="141.86" width="4.07" height="4.07" style="fill: rgb(240, 240, 240); transform-origin: 420.755px 143.895px;" id="el7se6mg5vjis" class="animable"></rect><rect x="424.99" y="141.86" width="4.07" height="4.07" style="fill: rgb(240, 240, 240); transform-origin: 427.025px 143.895px;" id="elgmg9188z3sf" class="animable"></rect><rect x="374.79" y="147.46" width="4.07" height="4.07" style="fill: rgb(240, 240, 240); transform-origin: 376.825px 149.495px;" id="elsx70gckwe6o" class="animable"></rect><rect x="381.07" y="147.46" width="4.07" height="4.07" style="fill: rgb(240, 240, 240); transform-origin: 383.105px 149.495px;" id="elnsw95wes3k" class="animable"></rect><rect x="387.34" y="147.46" width="4.07" height="4.07" style="fill: rgb(240, 240, 240); transform-origin: 389.375px 149.495px;" id="el37phmfcd047" class="animable"></rect><rect x="393.62" y="147.46" width="4.07" height="4.07" style="fill: rgb(240, 240, 240); transform-origin: 395.655px 149.495px;" id="el2xyntmdtw94" class="animable"></rect><rect x="399.89" y="147.46" width="4.07" height="4.07" style="fill: rgb(240, 240, 240); transform-origin: 401.925px 149.495px;" id="els3y59wuj4os" class="animable"></rect><rect x="406.17" y="147.46" width="4.07" height="4.07" style="fill: rgb(240, 240, 240); transform-origin: 408.205px 149.495px;" id="elkzupcrgaaj" class="animable"></rect><rect x="412.44" y="147.46" width="4.07" height="4.07" style="fill: rgb(240, 240, 240); transform-origin: 414.475px 149.495px;" id="eld92xrujtxjt" class="animable"></rect><rect x="418.72" y="147.46" width="4.07" height="4.07" style="fill: rgb(240, 240, 240); transform-origin: 420.755px 149.495px;" id="elvsutp8q80q" class="animable"></rect><rect x="424.99" y="147.46" width="4.07" height="4.07" style="fill: rgb(240, 240, 240); transform-origin: 427.025px 149.495px;" id="elyb7fecjza4q" class="animable"></rect><rect x="374.79" y="153.06" width="4.07" height="4.07" style="fill: rgb(240, 240, 240); transform-origin: 376.825px 155.095px;" id="el39ysn1ojib5" class="animable"></rect><rect x="381.07" y="153.06" width="4.07" height="4.07" style="fill: rgb(240, 240, 240); transform-origin: 383.105px 155.095px;" id="el76prc92wwv3" class="animable"></rect><rect x="387.34" y="153.06" width="4.07" height="4.07" style="fill: rgb(240, 240, 240); transform-origin: 389.375px 155.095px;" id="elsr97n71c4ec" class="animable"></rect><rect x="393.62" y="153.06" width="4.07" height="4.07" style="fill: rgb(240, 240, 240); transform-origin: 395.655px 155.095px;" id="el4zpqnzslfrg" class="animable"></rect><rect x="399.89" y="153.06" width="4.07" height="4.07" style="fill: rgb(240, 240, 240); transform-origin: 401.925px 155.095px;" id="elwztna2kk9na" class="animable"></rect><rect x="406.17" y="153.06" width="4.07" height="4.07" style="fill: rgb(240, 240, 240); transform-origin: 408.205px 155.095px;" id="ell49vzn3zvtq" class="animable"></rect><rect x="412.44" y="153.06" width="4.07" height="4.07" style="fill: rgb(240, 240, 240); transform-origin: 414.475px 155.095px;" id="el26plcdleziw" class="animable"></rect><rect x="418.72" y="153.06" width="4.07" height="4.07" style="fill: rgb(240, 240, 240); transform-origin: 420.755px 155.095px;" id="ell86uumqqvnb" class="animable"></rect><rect x="424.99" y="153.06" width="4.07" height="4.07" style="fill: rgb(240, 240, 240); transform-origin: 427.025px 155.095px;" id="elj15e4jwczcn" class="animable"></rect><rect x="374.79" y="159.09" width="4.07" height="4.07" style="fill: rgb(240, 240, 240); transform-origin: 376.825px 161.125px;" id="elah555h8r3sp" class="animable"></rect><rect x="381.07" y="159.09" width="4.07" height="4.07" style="fill: rgb(240, 240, 240); transform-origin: 383.105px 161.125px;" id="eladfpd6l6gbq" class="animable"></rect><rect x="387.34" y="159.09" width="4.07" height="4.07" style="fill: rgb(240, 240, 240); transform-origin: 389.375px 161.125px;" id="ely1zwv401d5" class="animable"></rect><rect x="393.62" y="159.09" width="4.07" height="4.07" style="fill: rgb(240, 240, 240); transform-origin: 395.655px 161.125px;" id="elny2hboftr2j" class="animable"></rect><rect x="383.82" y="133.57" width="36.21" height="3.52" style="fill: rgb(224, 224, 224); transform-origin: 401.925px 135.33px;" id="elp6j5hjua7op" class="animable"></rect><path d="M404.15,107.17a2,2,0,1,1-2-2A2,2,0,0,1,404.15,107.17Z" style="fill: rgb(224, 224, 224); transform-origin: 402.15px 107.17px;" id="el74iplh47h8i" class="animable"></path><rect x="272.82" y="86.41" width="70.32" height="170.85" style="fill: rgb(240, 240, 240); transform-origin: 307.98px 171.835px;" id="el0uhx32ruku1b" class="animable"></rect><rect x="277.11" y="90.71" width="61.74" height="162.27" style="fill: rgb(250, 250, 250); transform-origin: 307.98px 171.845px;" id="elnfiv47ws10j" class="animable"></rect><polygon points="338.85 97.66 338.85 109.91 277.11 171.66 277.11 159.4 338.85 97.66" style="fill: rgb(255, 255, 255); transform-origin: 307.98px 134.66px;" id="elocxk8wqdna" class="animable"></polygon><polygon points="338.85 140.03 338.85 157.31 277.11 219.04 277.11 201.75 338.85 140.03" style="fill: rgb(255, 255, 255); transform-origin: 307.98px 179.535px;" id="elmt1yagsv8wp" class="animable"></polygon><rect x="305.86" y="86.41" width="4.25" height="170.85" style="fill: rgb(240, 240, 240); transform-origin: 307.985px 171.835px;" id="el708wysq2aq8" class="animable"></rect><rect x="149.22" y="86.41" width="70.32" height="170.85" style="fill: rgb(240, 240, 240); transform-origin: 184.38px 171.835px;" id="elubopeh9n8gg" class="animable"></rect><rect x="153.51" y="90.71" width="61.74" height="162.27" style="fill: rgb(250, 250, 250); transform-origin: 184.38px 171.845px;" id="elkhlcnk13wss" class="animable"></rect><polygon points="215.25 97.66 215.25 109.91 153.51 171.66 153.51 159.4 215.25 97.66" style="fill: rgb(255, 255, 255); transform-origin: 184.38px 134.66px;" id="els6oz48wz9fh" class="animable"></polygon><polygon points="215.25 140.03 215.25 157.31 153.51 219.04 153.51 201.75 215.25 140.03" style="fill: rgb(255, 255, 255); transform-origin: 184.38px 179.535px;" id="elgqskcukhz08" class="animable"></polygon><rect x="182.25" y="86.41" width="4.25" height="170.85" style="fill: rgb(240, 240, 240); transform-origin: 184.375px 171.835px;" id="el0ykgvhw2lv4n" class="animable"></rect><path d="M171.14,387.39s-8.5,1.89-7.24-4,1.17-8.12-2.28-10.81-6.93-4-4.29-8.3-2.37-7.58-5-9.88.34-4,1-8.37-4-3.69-4.36-9.16,5.19-11.86.42-19.39c0,0,6.41,3.33,8.52,9.17s.41,10.36,4.2,12.58,6.16,6.07,4.87,10,.54,6,3.65,8.91,2.28,4,1.9,7.54.39,2.69,3.94,7.49S180.18,385.82,171.14,387.39Z" style="fill: rgb(240, 240, 240); transform-origin: 163.843px 352.579px;" id="elm3fzpi52bz" class="animable"></path><path d="M172.35,387.13a.41.41,0,0,1,0-.09l-17-51.62a.42.42,0,0,1,.27-.53h0a.41.41,0,0,1,.52.27l17,51.61a.69.69,0,0,1,0,.13Z" style="fill: rgb(224, 224, 224); transform-origin: 164.236px 361px;" id="elzyrggwkeurq" class="animable"></path><path d="M186.47,387.29s8.46,1.87,7.2-4-1.16-8.07,2.27-10.75,6.9-4,4.26-8.25,2.37-7.55,5-9.83-.34-4-1-8.33,4-3.67,4.33-9.11-5.16-11.8-.41-19.29c0,0-6.38,3.31-8.48,9.13s-.41,10.3-4.18,12.51-6.13,6-4.84,10-.54,6-3.63,8.86-2.27,4-1.89,7.5-.39,2.67-3.92,7.45S177.48,385.72,186.47,387.29Z" style="fill: rgb(240, 240, 240); transform-origin: 193.736px 352.652px;" id="elbu2x9aau9wa" class="animable"></path><path d="M184.49,386.8a.51.51,0,0,1,0-.13l16.92-51.34a.41.41,0,0,1,.52-.27h0a.42.42,0,0,1,.27.53l-16.92,51.34a.3.3,0,0,1,0,.1Z" style="fill: rgb(224, 224, 224); transform-origin: 193.353px 361.035px;" id="elw3cxombql2s" class="animable"></path><path d="M177.09,386.21s-9.73-.8-6.41-6.73,3.95-8.31,1.14-12.34-6.08-6.62-1.83-10.31,0-8.91-2-12.23,1.7-4.21,3.87-8.63-3-5.27-1.62-11.25,9.5-11,6.89-20.63c0,0,5.76,5.69,6.08,12.65s-3,11.23.32,14.87,4.58,8.54,1.89,12.34-1.42,6.64,1,10.75,1.11,5.07-.47,8.7-.48,3,1.74,9.34S187.29,387.53,177.09,386.21Z" style="fill: rgb(245, 245, 245); transform-origin: 177.92px 345.219px;" id="elxnyc7zojp" class="animable"></path><path d="M178.47,386.33a.36.36,0,0,1,0-.11l-1.07-60.93a.47.47,0,0,1,.47-.48h0a.47.47,0,0,1,.47.46l1.07,60.93a.39.39,0,0,1,0,.15Z" style="fill: rgb(224, 224, 224); transform-origin: 178.409px 355.58px;" id="elw7nu3hzcbj" class="animable"></path><path d="M203.57,381.51H156a2,2,0,0,0-1.84,2.64l.71,1.87.44,1.19,1.28,3.39.45,1.18,1.31,3.48.44,1.18,5.24,13.9h31.51l5.24-13.9.44-1.18,1.31-3.48.45-1.18,1.28-3.39.44-1.19.71-1.87A2,2,0,0,0,203.57,381.51Z" style="fill: rgb(230, 230, 230); transform-origin: 179.785px 395.925px;" id="elt1zhatmzhon" class="animable"></path><circle cx="89.91" cy="111.24" r="17.15" style="fill: rgb(224, 224, 224); transform-origin: 89.91px 111.24px;" id="elkhznoqmct8" class="animable"></circle><g id="elyosiizsl9se"><circle cx="89.91" cy="111.24" r="15.8" style="fill: rgb(250, 250, 250); transform-origin: 89.91px 111.24px; transform: rotate(-80.47deg);" class="animable"></circle></g><rect x="89.37" y="96.87" width="0.59" height="3.3" style="fill: rgb(224, 224, 224); transform-origin: 89.665px 98.52px;" id="elii9yp04zpkq" class="animable"></rect><rect x="89.37" y="122.22" width="0.59" height="3.3" style="fill: rgb(224, 224, 224); transform-origin: 89.665px 123.87px;" id="elepqorebdxtg" class="animable"></rect><rect x="75.34" y="110.9" width="3.3" height="0.59" style="fill: rgb(224, 224, 224); transform-origin: 76.99px 111.195px;" id="eljfe473k4mzp" class="animable"></rect><rect x="100.69" y="110.9" width="3.3" height="0.59" style="fill: rgb(224, 224, 224); transform-origin: 102.34px 111.195px;" id="ely5xeu0hmibc" class="animable"></rect><g id="el1oa8lxvso4e"><rect x="96.98" y="101.94" width="3.3" height="0.59" style="fill: rgb(224, 224, 224); transform-origin: 98.63px 102.235px; transform: rotate(-45.01deg);" class="animable"></rect></g><g id="el9pft4r6gkef"><rect x="79.05" y="119.86" width="3.3" height="0.59" style="fill: rgb(224, 224, 224); transform-origin: 80.7px 120.155px; transform: rotate(-45.01deg);" class="animable"></rect></g><g id="elyu7b8ytugp"><rect x="80.4" y="100.59" width="0.59" height="3.3" style="fill: rgb(224, 224, 224); transform-origin: 80.695px 102.24px; transform: rotate(-45deg);" class="animable"></rect></g><g id="eliwaf8mszce9"><rect x="98.33" y="118.51" width="0.59" height="3.3" style="fill: rgb(224, 224, 224); transform-origin: 98.625px 120.16px; transform: rotate(-45.01deg);" class="animable"></rect></g><g id="eldkofq93d6sr"><rect x="92" y="109.14" width="0.51" height="6" style="fill: rgb(224, 224, 224); transform-origin: 92.255px 112.14px; transform: rotate(-68.51deg);" class="animable"></rect></g><polygon points="89.92 111.45 80.7 111.45 80.7 110.94 89.41 110.94 89.41 103.79 89.92 103.79 89.92 111.45" style="fill: rgb(224, 224, 224); transform-origin: 85.31px 107.62px;" id="elgs5c7q2uv0t" class="animable"></polygon></g><g id="freepik--Shadow--inject-66" class="animable" style="transform-origin: 250.79px 455.775px;"><path d="M467.74,455.76c0,2.65-97.14,4.79-216.95,4.79s-216.95-2.14-216.95-4.79S131,451,250.79,451,467.74,453.12,467.74,455.76Z" style="fill: rgb(245, 245, 245); transform-origin: 250.79px 455.775px;" id="el88706w44fjt" class="animable"></path></g><g id="freepik--Symbol--inject-66" class="animable" style="transform-origin: 203.087px 113.649px;"><g id="elae0nx00u6vd"><circle cx="200.53" cy="101.04" r="16.02" style="fill: rgb(64, 123, 255); transform-origin: 200.53px 101.04px; transform: rotate(-45deg);" class="animable"></circle></g><path d="M208.56,101h0a1.36,1.36,0,0,1-1.35,1.35h-5.34v5.34a1.35,1.35,0,0,1-2.69,0v-5.34h-5.34a1.36,1.36,0,0,1-1.35-1.35h0a1.36,1.36,0,0,1,1.35-1.35h5.34V94.35a1.35,1.35,0,0,1,2.69,0v5.34h5.34A1.36,1.36,0,0,1,208.56,101Z" style="fill: rgb(255, 255, 255); transform-origin: 200.525px 101.02px;" id="elad3c7f9j6ye" class="animable"></path><path d="M200.53,121.12a.47.47,0,0,1-.48-.48v-1a.48.48,0,1,1,.95,0v1A.47.47,0,0,1,200.53,121.12Zm.47,22.45v-1.91a.48.48,0,1,0-.95,0v1.91a.48.48,0,0,0,.95,0Zm0-5.73v-1.91a.48.48,0,1,0-.95,0v1.91a.48.48,0,0,0,.95,0Zm0-5.73V130.2a.48.48,0,1,0-.95,0v1.91a.48.48,0,0,0,.95,0Zm0-5.73v-1.92a.48.48,0,0,0-.95,0v1.92a.48.48,0,0,0,.95,0Zm1,22a.48.48,0,0,0-.48-.48H201v-.47a.48.48,0,1,0-.95,0v1a.47.47,0,0,0,.48.48h.95A.47.47,0,0,0,202,148.34Zm21.72,0a.48.48,0,0,0-.48-.48h-1.81a.49.49,0,0,0-.48.48.48.48,0,0,0,.48.48h1.81A.47.47,0,0,0,223.68,148.34Zm-5.43,0a.48.48,0,0,0-.48-.48H216a.49.49,0,0,0-.48.48.48.48,0,0,0,.48.48h1.81A.47.47,0,0,0,218.25,148.34Zm-5.43,0a.48.48,0,0,0-.48-.48h-1.81a.49.49,0,0,0-.48.48.48.48,0,0,0,.48.48h1.81A.47.47,0,0,0,212.82,148.34Zm-5.43,0a.48.48,0,0,0-.48-.48H205.1a.49.49,0,0,0-.48.48.48.48,0,0,0,.48.48h1.81A.47.47,0,0,0,207.39,148.34Zm20.87,0a.49.49,0,0,0-.48-.48h-1a.48.48,0,0,0-.47.48.47.47,0,0,0,.47.48h1A.48.48,0,0,0,228.26,148.34Z" style="fill: rgb(64, 123, 255); transform-origin: 214.173px 134.002px;" id="eln8o7x0uys9" class="animable"></path></g><g id="freepik--character-3--inject-66" class="animable" style="transform-origin: 345.67px 291.855px;"><polygon points="408.41 432 409.42 448.07 402.56 448.61 397.96 432.81 408.41 432" style="fill: rgb(206, 122, 99); transform-origin: 403.69px 440.305px;" id="el761xdlg1kv8" class="animable"></polygon><path d="M404.16,447a2.38,2.38,0,0,0-2.38-.85c-1.33.44-3.08,2.62-3.08,2.62s-7.22,2.32-9.17,2.44-3.24,1.37-3.4,5H410.7s0-8.52-.83-10c-.72-1.28-2.17.37-2.17.37Z" style="fill: rgb(38, 50, 56); transform-origin: 398.415px 450.967px;" id="elzahhsgtyg" class="animable"></path><path d="M386.69,455.1l4.27-.05,18.64-.19a.19.19,0,0,0,0-.37h-1.27v0a3.89,3.89,0,0,1,1.91-5,.18.18,0,1,0-.18-.31,4.24,4.24,0,0,0-2.1,5.36l-2.63,0-18.64.2A.19.19,0,0,0,386.69,455.1Z" style="fill: rgb(255, 255, 255); transform-origin: 398.453px 452.123px;" id="eltkrm7ydtu4" class="animable"></path><path d="M399.54,450.27a2.29,2.29,0,0,0-3.38-.61c-.19.14-.37-.18-.18-.32a2.66,2.66,0,0,1,3.88.74c.13.19-.18.38-.32.19Z" style="fill: rgb(255, 255, 255); transform-origin: 397.895px 449.575px;" id="elqx2znkng0se" class="animable"></path><path d="M397.5,450.88a2.3,2.3,0,0,0-3.38-.61c-.19.14-.37-.18-.18-.32a2.66,2.66,0,0,1,3.88.75c.13.19-.18.37-.32.18Z" style="fill: rgb(255, 255, 255); transform-origin: 395.855px 450.187px;" id="el9vjjqo8dl0p" class="animable"></path><path d="M395.4,451.5a2.29,2.29,0,0,0-3.38-.61c-.19.14-.37-.18-.19-.32a2.66,2.66,0,0,1,3.88.74c.14.19-.18.38-.31.19Z" style="fill: rgb(255, 255, 255); transform-origin: 393.75px 450.805px;" id="el9g3uhmftewb" class="animable"></path><polygon points="355.88 431.83 354.93 448.06 348.01 448.61 345.33 432.65 355.88 431.83" style="fill: rgb(206, 122, 99); transform-origin: 350.605px 440.22px;" id="elqem132vvst" class="animable"></polygon><path d="M349.6,447a2.38,2.38,0,0,0-2.38-.85c-1.33.44-3.08,2.62-3.08,2.62s-7.22,2.32-9.17,2.44-3.66,1.22-4.39,5h23.66s.93-8.54,1.07-10-2.17.37-2.17.37Z" style="fill: rgb(38, 50, 56); transform-origin: 342.948px 450.927px;" id="elo8dg8mewfrm" class="animable"></path><path d="M331.28,455.1l4.26-.05,18.64-.19a.19.19,0,0,0,0-.37h-1.26s0,0,0,0a3.89,3.89,0,0,1,1.92-5,.18.18,0,1,0-.18-.31,4.24,4.24,0,0,0-2.1,5.36l-2.63,0-18.64.2A.19.19,0,0,0,331.28,455.1Z" style="fill: rgb(255, 255, 255); transform-origin: 343.05px 452.123px;" id="el0z610oftiku" class="animable"></path><path d="M345,450.27a2.29,2.29,0,0,0-3.38-.61c-.19.14-.37-.18-.18-.32a2.66,2.66,0,0,1,3.88.74c.14.19-.18.38-.32.19Z" style="fill: rgb(255, 255, 255); transform-origin: 343.357px 449.575px;" id="ely45kwbs8nm" class="animable"></path><path d="M342.94,450.88a2.29,2.29,0,0,0-3.37-.61c-.19.14-.38-.18-.19-.32a2.66,2.66,0,0,1,3.88.75c.14.19-.18.37-.32.18Z" style="fill: rgb(255, 255, 255); transform-origin: 341.298px 450.187px;" id="elzt1z98ot38q" class="animable"></path><path d="M340.84,451.5a2.29,2.29,0,0,0-3.38-.61c-.19.14-.37-.18-.18-.32a2.66,2.66,0,0,1,3.88.74c.13.19-.18.38-.32.19Z" style="fill: rgb(255, 255, 255); transform-origin: 339.195px 450.805px;" id="el954hjmb2yu8" class="animable"></path><path d="M339.76,262.66s-4,54.25-3.77,78.08c.28,24.78,8.36,96.91,8.36,96.91h13.24s2.44-70.86,3.62-95.2c1.29-26.54,9.22-84.14,9.22-84.14Z" style="fill: rgb(38, 50, 56); transform-origin: 353.205px 347.98px;" id="elvlvyiv63gsh" class="animable"></path><g id="elkdrztle1fkm"><path d="M363.74,312.93c1-9.74,2.23-19.8,3.31-28.59l-1.55-9.28S360.31,289.54,363.74,312.93Z" style="opacity: 0.2; transform-origin: 364.809px 293.995px;" class="animable"></path></g><path d="M358.58,433.64c0,1.43-.13,4.28-.13,4.28H343.2l-.46-4.28Z" style="fill: rgb(64, 123, 255); transform-origin: 350.66px 435.78px;" id="elr1rzxpk5idd" class="animable"></path><path d="M362.35,258.31s4,59.75,8.34,82.13c4.73,24.49,26.2,97.21,26.2,97.21H411.2s-9.2-70.55-11.64-94.81c-2.66-26.32-3.81-79.48-3.81-79.48Z" style="fill: rgb(38, 50, 56); transform-origin: 386.775px 347.98px;" id="elvyiiohh1jzc" class="animable"></path><path d="M411.84,433.54c.14,1.46.36,4.38.36,4.38H395.44l-1-4.38Z" style="fill: rgb(64, 123, 255); transform-origin: 403.32px 435.73px;" id="elkqemkx532y" class="animable"></path><path d="M398.18,268.45c-28.61,1.95-50.12,2.1-61.52-2.2-.79-50.38,1-81.72,3.34-89.38a7.94,7.94,0,0,1,4-4.76,28.86,28.86,0,0,1,9-2.8c6-.89,15.91-1.15,22.78-1.13,3.77,0,7.64.3,10.83.62,4,.41,6.55,3.95,6.38,7.93-.34,7.66-.37,15.41-.19,23,.11,4.38.28,8.7.5,12.93C394.71,239.68,398.13,262.56,398.18,268.45Z" style="fill: rgb(64, 123, 255); transform-origin: 367.325px 218.969px;" id="elgwt0bcnhvji" class="animable"></path><g id="eljy1r2lz1nd"><path d="M393.28,212.67l-12.28-27,11.78,14.08C392.89,204.12,393.06,208.44,393.28,212.67Z" style="opacity: 0.2; transform-origin: 387.14px 199.17px;" class="animable"></path></g><path d="M357.12,129c-1.51-1.64-6.58-1.78-9,1.38-2.58,3.38-5.85,9.62-7.93,8a4.86,4.86,0,0,0,4.39,3.33s-2.11,2.31-4.83,1.46a7.58,7.58,0,0,0,6.29,5c4.65.68,11.13-12.65,12.16-14.83C358.2,130.85,358,131,357.12,129Z" style="fill: rgb(38, 50, 56); transform-origin: 348.975px 138.027px;" id="el0oq74thh2g" class="animable"></path><path d="M360,129.55A15,15,0,0,1,371.5,133c2.06,1.78,3.66,4.12,2.95,6.92-1.66,6.52-6.06,17-6.06,17l-19.74-15.19s-.1-6.33,3.07-9.47C353.38,130.63,357,129.89,360,129.55Z" style="fill: rgb(38, 50, 56); transform-origin: 361.635px 143.181px;" id="elz1wfn71vqk" class="animable"></path><path d="M356.39,129.19s6.8-4.85,15.85,1.88,0,18.91,0,18.91-2.9,5.39-.34,6.72a7.3,7.3,0,0,1-2.82.49s.88,1.64,2,1.49c0,0-1.57.63-4.35-.61S356.39,129.19,356.39,129.19Z" style="fill: rgb(38, 50, 56); transform-origin: 366.326px 143.17px;" id="el7iqkwi3jrfy" class="animable"></path><path d="M356.82,162.79h0s0,0,0,.09l.54,3.94a12.58,12.58,0,0,1-.25,2.32,13.17,13.17,0,0,1-.51,1.82c-1,1.05-1.71,3.61,1.28,4,3.77.49,11.36-4.17,11.82-5.8-1.11-5.37-1.83-11.57-.94-16.46l-4.87,4.12Z" style="fill: rgb(206, 122, 99); transform-origin: 362.718px 163.848px;" id="ela10wmo1rp5u" class="animable"></path><g id="eld1b08f6089i"><path d="M356.84,162.89l.54,3.94c2.49-.78,5.25-2.8,6.12-5.24.62-1.76,0-3.56-.7-3.74Z" style="opacity: 0.2; transform-origin: 360.297px 162.34px;" class="animable"></path></g><path d="M348.29,153.7c.12.86.27,1.71.43,2.55,1.5,7.43,10.22,9.16,16.34,4.58l0,0a13.31,13.31,0,0,0,1.56-1.37c4.05-4.15,3.61-7.77,4.07-15.82a11,11,0,0,0-15.2-10.88C348.37,135.68,347.07,145.11,348.29,153.7Z" style="fill: rgb(206, 122, 99); transform-origin: 359.3px 147.635px;" id="elv6tp7x5by8m" class="animable"></path><path d="M357.92,147.15c0,.65-.32,1.18-.75,1.19s-.77-.52-.78-1.17.33-1.18.75-1.18.78.51.78,1.16" style="fill: rgb(38, 50, 56); transform-origin: 357.155px 147.165px;" id="elhzk8k4aw0t8" class="animable"></path><path d="M350.86,147.22c0,.65-.33,1.18-.75,1.19s-.78-.52-.79-1.17.33-1.18.76-1.18.77.51.78,1.16" style="fill: rgb(38, 50, 56); transform-origin: 350.09px 147.235px;" id="eliz36bgd3j8h" class="animable"></path><path d="M355.37,156l-.23,0a.26.26,0,0,1-.19-.29.25.25,0,0,1,.3-.19,3.59,3.59,0,0,0,4.24-3,.25.25,0,0,1,.3-.19.26.26,0,0,1,.18.3A4.06,4.06,0,0,1,355.37,156Z" style="fill: rgb(38, 50, 56); transform-origin: 357.461px 154.184px;" id="el07bx3yt12v8m" class="animable"></path><path d="M370.7,144.38a6.9,6.9,0,0,0-2.42,3.53.76.76,0,0,1-.54.67l-2.92.24s1.78-7.76-.3-7.92.6-3.41-.58-4.08c-2.78-1.57-10.78-2.66-14.47,1.78,0,0,1.42-4.66,5.54-6.74s11.83-1.66,14.44,2.48S370.7,144.38,370.7,144.38Z" style="fill: rgb(38, 50, 56); transform-origin: 360.262px 139.729px;" id="elroksdm1i3e" class="animable"></path><path d="M374.18,149a7.67,7.67,0,0,1-3.64,4.57c-2.36,1.28-4.14-.68-4-3.22.14-2.29,1.53-5.71,4.14-5.94s4.15,2.2,3.48,4.59" style="fill: rgb(206, 122, 99); transform-origin: 370.424px 149.184px;" id="el5adgnemlpo4" class="animable"></path><path d="M348.93,144.53a.3.3,0,0,0,.27-.16,1.68,1.68,0,0,1,1-.87,2,2,0,0,1,1.3.19.31.31,0,0,0,.44-.11.32.32,0,0,0-.11-.44,2.57,2.57,0,0,0-1.79-.25,2.21,2.21,0,0,0-1.38,1.17.3.3,0,0,0,.12.43A.29.29,0,0,0,348.93,144.53Z" style="fill: rgb(38, 50, 56); transform-origin: 350.299px 143.679px;" id="elasjgvknzjt9" class="animable"></path><path d="M361.2,144.28a.35.35,0,0,0,.13-.05.3.3,0,0,0,.12-.43,2.54,2.54,0,0,0-1.43-1.11,2.26,2.26,0,0,0-1.78.33.32.32,0,0,0,.33.55,1.62,1.62,0,0,1,1.29-.26,1.88,1.88,0,0,1,1,.81A.31.31,0,0,0,361.2,144.28Z" style="fill: rgb(38, 50, 56); transform-origin: 359.791px 143.459px;" id="el910yxlgqkd5" class="animable"></path><path d="M354.05,146.6a7.14,7.14,0,0,1-2.1,3.46c-1.64,1.39,1.61,2.6,1.61,2.6Z" style="fill: rgb(186, 77, 60); transform-origin: 352.769px 149.63px;" id="elrvm7knl9w98" class="animable"></path><path d="M368,145.93a11.28,11.28,0,0,0-7.26,1.47c-.19-1.78-1.35-3.16-2.77-3.16s-2.7,1.53-2.78,3.46a2.46,2.46,0,0,0-2.88,0c-.1-1.9-1.31-3.41-2.79-3.41s-2.8,1.64-2.8,3.67,1.26,3.67,2.8,3.67,2.78-1.62,2.8-3.62c.14-.13,1.16-1.05,2.86,0,0,2,1.27,3.6,2.79,3.6s2.81-1.65,2.81-3.67a1.79,1.79,0,0,0,0-.23,10.78,10.78,0,0,1,7.22-1.5.12.12,0,0,0,.14-.11A.14.14,0,0,0,368,145.93Zm-18.48,5.4c-1.41,0-2.55-1.54-2.55-3.42s1.14-3.42,2.55-3.42,2.56,1.53,2.56,3.42S350.9,151.33,349.49,151.33Zm8.45,0c-1.4,0-2.55-1.54-2.55-3.42s1.15-3.42,2.55-3.42,2.56,1.53,2.56,3.42S359.35,151.33,357.94,151.33Z" style="fill: rgb(255, 255, 255); transform-origin: 357.432px 147.935px;" id="eleqb6ygei6o" class="animable"></path><path d="M339.49,178.88l-8.58,20.54c-1.44,3.4-2.91,6.78-4.4,10.09-.74,1.65-1.51,3.28-2.28,4.85s-1.56,3.11-2.31,4.37a11.29,11.29,0,0,1-.66,1h0l-1.11.53-1.22.55-2.5,1.09-10.29,4.36c-6.91,2.93-13.83,5.95-20.68,9.14l2.42,7.54c7.47-1.42,14.85-3.09,22.21-5,3.67-1,7.34-1.92,11-3l2.8-.85,1.42-.45,1.51-.52.57-.21.26-.11,1-.45.54-.25c.22-.13.43-.25.63-.39s.42-.28.54-.37a13.35,13.35,0,0,0,1.37-1.2c.45-.46.82-.88,1.14-1.27.61-.73,1.05-1.36,1.5-2,.76-1.1,1.42-2.16,2-3.19.46-.75.88-1.48,1.3-2.21,1-1.76,1.9-3.5,2.79-5.23,1.79-3.47,3.42-7,5-10.43,3.17-7,6.12-13.94,8.81-21.13Zm-17.77,40.66-.06,0,0,0,.1-.07.09-.05Z" style="fill: rgb(64, 123, 255); transform-origin: 319.865px 210.91px;" id="el6dfl9s5r6jq" class="animable"></path><g id="elvankzgfvvx"><path d="M338.72,191.45c-.83,6-2.25,32.22-2.25,32.22a.42.42,0,0,1,0,.07c-.62,1-1.28,2.09-2,3.19-.45.63-.89,1.26-1.5,2C333.47,216.31,338.72,191.45,338.72,191.45Z" style="opacity: 0.2; transform-origin: 335.845px 210.19px;" class="animable"></path></g><path d="M288.49,240.61a20,20,0,0,0-1.15-4.33,7.49,7.49,0,0,0-4.58-2.27c-2.5-.06-4.49-.77-6.36-.68s.12,1.64,1.34,2.26,2.61,1.32,2,2.17-8.77,4.52-9.49,5.79.8,1.08.8,1.08-1.83.84-1.8,1.83,1.34.81,1.34.81-1.21.6-.68,1.4c.27.42,2.35.09,4.31-.31-.41.2-.69.44-.74.74-.18,1.22,2.52.82,4.68.54a9.67,9.67,0,0,0,5.86-2.89C285.51,245.11,288.89,243.15,288.49,240.61Zm-10.85,7a.84.84,0,0,1,.19,0Z" style="fill: rgb(206, 122, 99); transform-origin: 278.886px 241.628px;" id="elvea8eiuzu7q" class="animable"></path><path d="M270.93,247.33c2.09-.94,4.21-1.82,6.34-2.61a11.94,11.94,0,0,0,.8,1.6c.15.26.48-.07.33-.32a12.86,12.86,0,0,1-1.67-5.27c0-.31-.44-.21-.41.1a12.76,12.76,0,0,0,.22,1.4.17.17,0,0,0-.12,0,22.5,22.5,0,0,0-5,2.11c-.24.14-.08.58.17.44a21.93,21.93,0,0,1,4.86-2.07.22.22,0,0,0,.13-.12,12,12,0,0,0,.5,1.71c-2.14.79-4.25,1.66-6.35,2.61C270.51,247,270.67,247.45,270.93,247.33Z" style="fill: rgb(186, 77, 60); transform-origin: 274.532px 243.946px;" id="elng8qs8gkvei" class="animable"></path><path d="M278.94,242.49a5.44,5.44,0,0,1,6.33-2.18c.25.1.41-.36.16-.46-2.46-.91-5.07,0-6.83,2.37A.22.22,0,1,0,278.94,242.49Z" style="fill: rgb(186, 77, 60); transform-origin: 282.042px 241.053px;" id="elzefe62p8a2" class="animable"></path><path d="M391.61,171.84c4.89,6.35,9.56,12.83,14.17,19.38,2.32,3.26,4.59,6.56,6.85,9.88s4.47,6.62,6.74,10.17l.44.68.53.87.26.44.07.11.23.43.25.52c.08.18.15.36.18.45a12.3,12.3,0,0,1,.37,1.22l.11.48.07.39a16.93,16.93,0,0,1,.21,2.37c0,.66,0,1.28,0,1.86-.06,2.32-.24,4.4-.44,6.49-.41,4.15-1,8.17-1.6,12.18-1.25,8-2.82,15.91-4.67,23.8l-8.39-1c0-8,.09-16,.21-23.88,0-4,.07-7.89,0-11.73,0-1.9-.09-3.81-.24-5.48,0-.42-.08-.8-.13-1.14a2.07,2.07,0,0,0-.14-.59h0l0,.12a2.64,2.64,0,0,0,.15.51l.11.27a3.73,3.73,0,0,0,.16.35l.15.27,0-.05-.15-.19-.69-.94c-2.26-3-4.76-6.21-7.14-9.37s-4.83-6.32-7.22-9.51c-4.8-6.37-9.56-12.77-14.15-19.3Z" style="fill: rgb(64, 123, 255); transform-origin: 400px 217.7px;" id="elbyfpsd7fhct" class="animable"></path><path d="M415.22,263.05c-1.83-4.74-5.92-3.53-7.12-2.33,0,0-3,3.08-3.65,4.84s-1.52,3.48-1.21,4.28c.15.38.68,0,1.2-.54a6.86,6.86,0,0,0-.48,2s.46,4.86,2.35,6.38,1.53-2.85,1.53-2.85.23,4.33,4.8,2.93c1.76-.53,3.7-5.72,4-8.61C417.45,266.71,415.22,263.05,415.22,263.05Z" style="fill: rgb(206, 122, 99); transform-origin: 409.996px 268.838px;" id="elhbuhntghpvm" class="animable"></path><path d="M357.46,167.62s-3.89-.42-6,1.95c-.84,2.91,1,6.37,3,9.87l4.31-4.45C359.08,175,356.84,171.19,357.46,167.62Z" style="fill: rgb(64, 123, 255); transform-origin: 355.026px 173.516px;" id="ellbdb146y4eb" class="animable"></path><g id="elojf1d9jgqs"><path d="M357.46,167.62s-3.89-.42-6,1.95c-.84,2.91,1,6.37,3,9.87l4.31-4.45C359.08,175,356.84,171.19,357.46,167.62Z" style="opacity: 0.2; transform-origin: 355.026px 173.516px;" class="animable"></path></g><path d="M369.05,165.5c-1.84,4.25-5.78,7.06-10.26,9.49l2.43,4.45,15-11.26S371.92,164.36,369.05,165.5Z" style="fill: rgb(64, 123, 255); transform-origin: 367.505px 172.364px;" id="elxrd5hogcwb" class="animable"></path><g id="elw9wsqsxnwze"><path d="M369.05,165.5c-1.84,4.25-5.78,7.06-10.26,9.49l2.43,4.45,15-11.26S371.92,164.36,369.05,165.5Z" style="opacity: 0.2; transform-origin: 367.505px 172.364px;" class="animable"></path></g><g id="el7xjzfu5xxu4"><path d="M358.81,181.41a.77.77,0,1,1-.76-.77A.77.77,0,0,1,358.81,181.41Z" style="opacity: 0.2; transform-origin: 358.04px 181.41px;" class="animable"></path></g><g id="eleus2n67qao5"><path d="M358.81,186.43a.77.77,0,1,1-.76-.77A.77.77,0,0,1,358.81,186.43Z" style="opacity: 0.2; transform-origin: 358.04px 186.43px;" class="animable"></path></g><g id="eloo9xf0bwdke"><path d="M358.81,191.45a.77.77,0,1,1-.76-.77A.77.77,0,0,1,358.81,191.45Z" style="opacity: 0.2; transform-origin: 358.04px 191.45px;" class="animable"></path></g></g><g id="freepik--character-2--inject-66" class="animable" style="transform-origin: 275.956px 291.268px;"><polygon points="263.08 438.04 265.14 448.42 270.62 448.42 271.35 438.04 263.08 438.04" style="fill: rgb(255, 195, 189); transform-origin: 267.215px 443.23px;" id="el8k08tfmmjwi" class="animable"></polygon><path d="M269.9,447.1a2.37,2.37,0,0,1,2.36-.85c1.32.44,3,2.6,3,2.6s7.16,2.3,9.09,2.42,3.63,1.21,4.35,5H265.31s-.92-8.45-1.07-9.9,2.16.36,2.16.36Z" style="fill: rgb(38, 50, 56); transform-origin: 276.466px 451.039px;" id="elpgnqxr9dvhp" class="animable"></path><path d="M288,455.1l-4.22,0-18.46-.19c-.23,0-.23-.37,0-.36h1.25a.43.43,0,0,0,0,0,3.85,3.85,0,0,0-1.9-5c-.21-.11,0-.43.18-.31a4.21,4.21,0,0,1,2.08,5.31c.87,0,1.74,0,2.61,0l18.45.19A.18.18,0,1,1,288,455.1Z" style="fill: rgb(64, 123, 255); transform-origin: 276.38px 452.157px;" id="elwksds8l7jd" class="animable"></path><path d="M274.47,450.32a2.28,2.28,0,0,1,3.35-.6c.19.14.37-.18.18-.32a2.63,2.63,0,0,0-3.84.74c-.13.19.18.37.31.18Z" style="fill: rgb(255, 255, 255); transform-origin: 276.105px 449.634px;" id="el3qwc1gxe1j9" class="animable"></path><path d="M276.49,450.93a2.28,2.28,0,0,1,3.35-.6c.19.14.37-.18.18-.32a2.63,2.63,0,0,0-3.84.74c-.14.19.18.37.31.18Z" style="fill: rgb(255, 255, 255); transform-origin: 278.123px 450.244px;" id="el7fo7mef7s13" class="animable"></path><path d="M278.58,451.54a2.27,2.27,0,0,1,3.35-.6c.18.14.36-.18.18-.32a2.64,2.64,0,0,0-3.85.74c-.13.19.18.37.32.18Z" style="fill: rgb(255, 255, 255); transform-origin: 280.207px 450.854px;" id="ele86pqifi6s" class="animable"></path><polygon points="214.01 438.11 215.15 448.42 220.63 448.42 222.27 438.11 214.01 438.11" style="fill: rgb(255, 195, 189); transform-origin: 218.14px 443.265px;" id="elrnxwigt5t5j" class="animable"></polygon><path d="M219.91,447.1a2.37,2.37,0,0,1,2.36-.85c1.32.44,3,2.6,3,2.6s7.16,2.3,9.09,2.42,3.62,1.21,4.35,5H215.32s-.92-8.45-1.07-9.9,2.16.36,2.16.36Z" style="fill: rgb(38, 50, 56); transform-origin: 226.477px 451.039px;" id="el1nnkj5mdgrq" class="animable"></path><path d="M238.05,455.1l-4.22,0-18.46-.19a.18.18,0,1,1,0-.36h1.25a.43.43,0,0,0,0,0,3.85,3.85,0,0,0-1.9-5c-.21-.11,0-.43.18-.31a4.21,4.21,0,0,1,2.08,5.31c.87,0,1.74,0,2.61,0l18.45.19A.18.18,0,1,1,238.05,455.1Z" style="fill: rgb(64, 123, 255); transform-origin: 226.43px 452.157px;" id="el5r40is5j1v8" class="animable"></path><path d="M224.48,450.32a2.28,2.28,0,0,1,3.35-.6c.19.14.37-.18.18-.32a2.63,2.63,0,0,0-3.84.74c-.13.19.18.37.31.18Z" style="fill: rgb(255, 255, 255); transform-origin: 226.115px 449.634px;" id="elmbfryfr31zs" class="animable"></path><path d="M226.5,450.93a2.28,2.28,0,0,1,3.35-.6c.19.14.37-.18.18-.32a2.63,2.63,0,0,0-3.84.74c-.14.19.18.37.31.18Z" style="fill: rgb(255, 255, 255); transform-origin: 228.133px 450.244px;" id="el0r9z7mjx3jga" class="animable"></path><path d="M228.59,451.54a2.27,2.27,0,0,1,3.34-.6c.19.14.37-.18.19-.32a2.64,2.64,0,0,0-3.85.74c-.13.19.18.37.32.18Z" style="fill: rgb(255, 255, 255); transform-origin: 230.217px 450.854px;" id="elbwm4habio9j" class="animable"></path><path d="M261.26,438.4h12.1c1.05-15.58,4-67.24,1.67-92.8,1.69-35.46-3.73-82.54-3.73-82.54H233s2.81,31.51,15.43,82C248.29,385.13,258.06,425.15,261.26,438.4Z" style="fill: rgb(64, 123, 255); transform-origin: 254.452px 350.73px;" id="el2ys0xnpx0u5" class="animable"></path><g id="el9ei175z1d1n"><path d="M261.26,438.4h12.1c1.05-15.58,4-67.24,1.67-92.8,1.69-35.46-3.73-82.54-3.73-82.54H233s2.81,31.51,15.43,82C248.29,385.13,258.06,425.15,261.26,438.4Z" style="fill: rgb(255, 255, 255); opacity: 0.2; transform-origin: 254.452px 350.73px;" class="animable"></path></g><g id="ellnkg2sqpk3g"><path d="M246.31,336.6c6.93-28.31.84-65,.84-65l-6,41.94Z" style="opacity: 0.2; transform-origin: 245.387px 304.1px;" class="animable"></path></g><polygon points="259.82 438.1 260.71 442.7 274.59 442.64 274.6 438.04 259.82 438.1" style="fill: rgb(38, 50, 56); transform-origin: 267.21px 440.37px;" id="el3u7bd675w3" class="animable"></polygon><path d="M212.28,438.85h12.11c4.31-16,13-67.59,14.36-93.15,6.86-35.47,10.14-82.64,10.14-82.64H210.54s-3.57,31.87,1.68,82.39C211.2,389.51,212,425.15,212.28,438.85Z" style="fill: rgb(64, 123, 255); transform-origin: 229.122px 350.955px;" id="eljxhckps3q3" class="animable"></path><g id="eljzqoa9nna87"><path d="M212.28,438.85h12.11c4.31-16,13-67.59,14.36-93.15,6.86-35.47,10.14-82.64,10.14-82.64H210.54s-3.57,31.87,1.68,82.39C211.2,389.51,212,425.15,212.28,438.85Z" style="fill: rgb(255, 255, 255); opacity: 0.2; transform-origin: 229.122px 350.955px;" class="animable"></path></g><polygon points="211.22 438.09 211.2 442.65 225.19 442.65 225.92 438.09 211.22 438.09" style="fill: rgb(38, 50, 56); transform-origin: 218.56px 440.37px;" id="el7twqikd4bg" class="animable"></polygon><path d="M276.31,268.85c-26.6,10.22-69.93,2.81-69.93,2.81.29-7.29.56-18.57.71-30.86,0-3.3.07-6.67.09-10.06,0-6.5,0-13.06,0-19.25,0-.5,0-1,0-1.49,0-3-.08-6-.14-8.76,0-.34,0-.68,0-1-.12-5.47-.32-10.31-.57-14.18-.49-7.29,3.48-14.08,10.69-15.29,2.19-.37,4.56-.7,7-1,.58-.07,1.18-.12,1.78-.18a172.14,172.14,0,0,1,21.17-.77l1,0,.54,0,.89,0c3,.12,5.94.35,8.53.69,5.88.76,11.1,5.4,11.2,11.34.09,5.44.62,16.93,1.39,29.89.3,4.9.63,10,1,15.11C273,246,274.81,265.35,276.31,268.85Z" style="fill: rgb(38, 50, 56); transform-origin: 241.345px 221.51px;" id="ellysok530h3s" class="animable"></path><g id="el50ctc5vu2e"><path d="M222,191.45s-.57,28.24,1.31,31.67,38.21,13.8,38.21,13.8c-18.19-2.47-35.78-5.24-45.09-12.17Z" style="opacity: 0.2; transform-origin: 238.975px 214.185px;" class="animable"></path></g><g id="elcafvwsmv2kt"><path d="M262.72,245.22c-21.17,5-45.93-1.42-55.63-4.42,0-3.3.07-6.67.09-10.06C222.09,241.77,262.72,245.22,262.72,245.22Z" style="opacity: 0.2; transform-origin: 234.905px 238.903px;" class="animable"></path></g><polygon points="244.73 186.12 241.16 225.67 248.3 240.03 253.87 224.33 248.1 186.12 244.73 186.12" style="fill: rgb(64, 123, 255); transform-origin: 247.515px 213.075px;" id="el0z24qi5nbotn" class="animable"></polygon><polygon points="245.58 177.62 241.73 183.33 246.26 188.56 250.78 181.82 245.58 177.62" style="fill: rgb(64, 123, 255); transform-origin: 246.255px 183.09px;" id="eltj16kd2nyic" class="animable"></polygon><path d="M253.41,130.23a15.93,15.93,0,0,0-12.69.74c-2.56,1.33-4.78,3.37-4.72,6.43.12,7.13,2.11,19.06,2.11,19.06l24.08-10.88s1.75-6-1.07-9.79A15.54,15.54,0,0,0,253.41,130.23Z" style="fill: rgb(38, 50, 56); transform-origin: 249.363px 142.856px;" id="elqk6x6ecfv2" class="animable"></path><path d="M244.42,129.63s-3.26-1.81-6.52,1.56c-2.73,2.81-1.54,12-1.54,12Z" style="fill: rgb(38, 50, 56); transform-origin: 240.261px 136.167px;" id="elht6jnd8mxy" class="animable"></path><path d="M242,130.38s.94-5.44,10.87-3.81,17.81,9.83,14.19,14.12-14.19-2.75-14.19-2.75Z" style="fill: rgb(38, 50, 56); transform-origin: 254.978px 134.171px;" id="elte5bxugwmd" class="animable"></path><path d="M248.63,165.33h0a.3.3,0,0,1,0,.08l-1.51,3.94a13.91,13.91,0,0,0-.31,2.46,14.66,14.66,0,0,0,.09,2c.76,1.32.88,4.14-2.29,3.81-4-.41-10.8-6.7-10.88-8.5,2.45-5.27,4.78-11.86,5-17.13l4,5.44Z" style="fill: rgb(255, 195, 189); transform-origin: 241.181px 164.818px;" id="elpv9q7v83x5k" class="animable"></path><path d="M245.58,177.62c.95-2.1.94-4.62,1.27-6.88a8.21,8.21,0,0,1,.67-2.52s2.74-.64,4.35.81a30,30,0,0,1-1.16,13.05Z" style="fill: rgb(38, 50, 56); transform-origin: 248.854px 175.08px;" id="elnghimhv8ht8" class="animable"></path><path d="M230.38,169.23s2.22-4.27,5.26-4.79c.37,5.15,2.47,9.24,9.94,13.18l-4.42,6.55C235,179.14,231.56,174.17,230.38,169.23Z" style="fill: rgb(38, 50, 56); transform-origin: 237.98px 174.305px;" id="ell0um0h8j7b" class="animable"></path><g id="elpn5ahsefw6"><g style="opacity: 0.2; transform-origin: 245.297px 164.065px;" class="animable"><path d="M248.59,165.42l-1.51,3.94c-2.39-1.41-4.74-4.16-5.05-6.9-.21-2,.85-3.67,1.64-3.69Z" id="elxgps4n12qun" class="animable" style="transform-origin: 245.297px 164.065px;"></path></g></g><path d="M259.66,158c-.34.86-.7,1.7-1.07,2.53-3.35,7.3-12.78,7-18,.76l0,0a14,14,0,0,1-1.28-1.79c-3.17-5.26-1.84-8.9-.36-17.32a11.66,11.66,0,0,1,18.34-7.55C264,139.38,263,149.44,259.66,158Z" style="fill: rgb(255, 195, 189); transform-origin: 249.815px 149.203px;" id="el5cxkwvyz6pv" class="animable"></path><path d="M243.81,145.4s-.05,7,2.7,8,4.8-1.33,7.82,1.58a3.74,3.74,0,0,1,3.81.34c1.82,1.37,1.52,2.19,1.52,2.19s-.7,10.49-10.3,9.27-10.76-10.63-10.1-15.63l1.9-6.21Z" style="fill: rgb(38, 50, 56); transform-origin: 249.393px 155.909px;" id="elaoez0f3v6k7" class="animable"></path><path d="M250.05,155.21a60.85,60.85,0,0,0,5.95,1.71,3.1,3.1,0,0,1-4.26,1.51C249.81,157.6,250.05,155.21,250.05,155.21Z" style="fill: rgb(255, 255, 255); transform-origin: 253.02px 156.992px;" id="elcw8c0thaw5l" class="animable"></path><path d="M258,133.83c-3.75-3.16-11.81-4.59-15.52-1s-3.73,10.06-3.73,10.06a2.77,2.77,0,0,0,.62,1.93,1.64,1.64,0,0,1,.24.32l4.18.68c.33-1.72,1-4.85,2.19-5,2.2-.3.7-2.72,1.18-4.08,1.53-4.42,13.54-1.4,14.92,5.36C262.1,142.13,261.77,137,258,133.83Z" style="fill: rgb(38, 50, 56); transform-origin: 250.413px 138.269px;" id="el4qpfkctnm3" class="animable"></path><path d="M234.06,146.84a8.18,8.18,0,0,0,2.66,5.61c2.13,1.89,4.44.29,4.89-2.37.41-2.39-.2-6.26-2.84-7.14s-4.81,1.27-4.71,3.9" style="fill: rgb(255, 195, 189); transform-origin: 237.892px 148.007px;" id="els8dqm38fzbr" class="animable"></path><path d="M251.27,147.33c-.16.65.06,1.25.48,1.36s.89-.34,1.05-1-.07-1.25-.49-1.35-.89.34-1,1" style="fill: rgb(38, 50, 56); transform-origin: 252.034px 147.516px;" id="elcjqkuty10zd" class="animable"></path><path d="M258.09,148.94c-.16.65.06,1.25.48,1.36s.89-.34,1.05-1-.07-1.25-.49-1.35-.89.34-1,1" style="fill: rgb(38, 50, 56); transform-origin: 258.854px 149.126px;" id="elf6kpqn871go" class="animable"></path><path d="M261,147a.34.34,0,0,1-.24-.24,1.74,1.74,0,0,0-.81-1.13,1.94,1.94,0,0,0-1.39-.12.35.35,0,0,1-.43-.22.36.36,0,0,1,.22-.43,2.74,2.74,0,0,1,1.92.17,2.43,2.43,0,0,1,1.14,1.54.34.34,0,0,1-.23.42A.37.37,0,0,1,261,147Z" style="fill: rgb(38, 50, 56); transform-origin: 259.77px 145.883px;" id="elj7y9e2sqtp" class="animable"></path><path d="M249.88,144.33a.35.35,0,0,1-.15-.07.37.37,0,0,1,0-.52,2.92,2.92,0,0,1,1.84-1,2.62,2.62,0,0,1,1.95.72.37.37,0,0,1,0,.52.35.35,0,0,1-.51,0,1.93,1.93,0,0,0-1.41-.55,2.12,2.12,0,0,0-1.33.72A.38.38,0,0,1,249.88,144.33Z" style="fill: rgb(38, 50, 56); transform-origin: 251.625px 143.536px;" id="eltsqpp1htr8" class="animable"></path><path d="M255.76,147.51a20.7,20.7,0,0,0,1.25,5.07c.91,2.08-2.68,1.3-2.68,1.3Z" style="fill: rgb(237, 132, 126); transform-origin: 255.744px 150.767px;" id="el969d661dltu" class="animable"></path><path d="M282.7,243.37c-1.34-2.32-6.23-4.44-6.23-4.44a14.71,14.71,0,0,0-4-.11l.19,0s3.2-1.84,2.4-2.28-2.76.27-4.71.68a11.93,11.93,0,0,0-4.15,2.2c-1.43.87-2.26,3.56-1.25,7.12,0,0,4.08,3.88,7,4.42,2.87.7,8.73,1.06,10-.73,2.74-3.76-2.31-6.4-2.31-6.4S284,245.69,282.7,243.37Z" style="fill: rgb(255, 195, 189); transform-origin: 273.723px 243.968px;" id="elz0qt5f5v9bl" class="animable"></path><path d="M264.6,237.71l-1.14,7.83c-8.31-.45-16.51-1.2-24.76-2.3-4.13-.54-8.25-1.2-12.42-2-2.09-.39-4.18-.84-6.32-1.37a54.41,54.41,0,0,1-6.7-2c-.61-.24-1.25-.51-1.95-.85a14.77,14.77,0,0,1-2.41-1.5,10.53,10.53,0,0,1-1.7-1.62,9.17,9.17,0,0,1-1-1.53,9.85,9.85,0,0,1-.5-1.12l-.21-.66-.05-.22a19.27,19.27,0,0,1-.46-2.63c-.28-2.63-.33-4.72-.38-6.9,0-4.29,0-8.44.19-12.6.28-8.31.88-16.49,1.72-24.74l15.94,1.39c-.23,4-.6,8.09-.86,12.13l-.94,12.11c-.3,4-.63,8-.8,11.94-.07,1.37-.13,2.78-.14,4,1.22.57,2.69,1.13,4.16,1.64,1.8.62,3.67,1.2,5.56,1.78,3.78,1.15,7.67,2.19,11.57,3.23C248.78,233.73,256.72,235.73,264.6,237.71Z" style="fill: rgb(38, 50, 56); transform-origin: 234.6px 214.52px;" id="elxq31j3hskt9" class="animable"></path><path d="M334.83,185.54c-5.37,5.07-10.95,9.83-16.72,14.42-2.87,2.32-5.83,4.53-8.88,6.76-1.55,1.08-3.11,2.16-4.88,3.25-.45.27-.91.54-1.42.82a16.27,16.27,0,0,1-1.86.91,11.18,11.18,0,0,1-1.81.56l-.41.07-.54.06a8,8,0,0,1-1.72,0l-.29,0-.41-.08a7,7,0,0,1-.78-.23l-.14,0-.28-.1c-.34-.13-.79-.29-1.05-.41l-.86-.38c-2.13-1-3.79-1.93-5.49-2.9s-3.3-1.94-4.88-3c-3.16-2-6.26-4-9.28-6.17l-.48-.33-2.79-2c-4.91-3.5-9.68-7.11-14.36-10.95l9.78-12.66c5.83,4.16,11.6,8.55,17.31,12.87,2.87,2.13,5.7,4.32,8.55,6.39,1.43,1,2.83,2.08,4.22,3.06,1,.7,2,1.41,3,2,1.27-.59,2.62-1.29,4-2,3.13-1.59,6.27-3.35,9.45-5.06,6.34-3.45,12.75-7,19.27-10.24Z" style="fill: rgb(38, 50, 56); transform-origin: 295.165px 192.808px;" id="elze12vd8b9ih" class="animable"></path><g id="elb4cw33qnrjt"><path d="M272.65,198.7l-2.79-2L269,183.05Z" style="opacity: 0.2; transform-origin: 270.825px 190.875px;" class="animable"></path></g><path d="M334.19,185.66a4,4,0,0,0,2.87-1.54c1.66-2.71,4.28-3.21,5.33-3.79s-.15-2.36-2.81-1.79c0,0,1.14-3.71,2.06-4.61s5.76-2.82,5.67-3.51-3.84.43-6,1.42-6.62,6.48-10.62,8.45C330.66,180.29,329.08,184.45,334.19,185.66Z" style="fill: rgb(255, 195, 189); transform-origin: 338.874px 177.933px;" id="elsk0irzx1p3a" class="animable"></path></g><g id="freepik--character-1--inject-66" class="animable" style="transform-origin: 117.922px 293.36px;"><path d="M143.87,181.33c.87,6.59,1.52,13.21,2.1,19.83.31,3.3.54,6.62.82,9.91l.37,4.94.36,4.4a7,7,0,0,0,.32,1.51c.18.66.4,1.4.64,2.13.47,1.47,1,3,1.55,4.51,1.06,3.07,2.24,6.14,3.36,9.25,2.3,6.19,4.63,12.44,6.8,18.74l-7.1,3.52c-3.72-5.64-7.16-11.39-10.47-17.28-1.67-2.93-3.24-5.92-4.81-9-.78-1.53-1.53-3.09-2.27-4.71-.37-.82-.74-1.64-1.1-2.55a22.1,22.1,0,0,1-1.1-3.28l-.14-.6-.06-.37-.13-.68-.23-1.31-.42-2.52-.8-5c-.48-3.32-1-6.62-1.41-9.93-.88-6.62-1.66-13.23-2.19-19.88Z" style="fill: rgb(64, 123, 255); transform-origin: 144.075px 220.7px;" id="el19juakg1b0f" class="animable"></path><g id="el6jqgd65ye3d"><path d="M130.31,223.73h30.36a1.38,1.38,0,0,1,1.38,1.38v42.76a1.38,1.38,0,0,1-1.38,1.38H130.31a1.37,1.37,0,0,1-1.37-1.37V225.11a1.37,1.37,0,0,1,1.37-1.37Z" style="fill: rgb(38, 50, 56); transform-origin: 145.495px 246.49px; transform: rotate(49.73deg);" class="animable"></path></g><g id="elqc3fzbjtsjo"><path d="M130.31,223.73h30.36a1.38,1.38,0,0,1,1.38,1.38v42.76a1.38,1.38,0,0,1-1.38,1.38H130.31a1.37,1.37,0,0,1-1.37-1.37V225.11a1.37,1.37,0,0,1,1.37-1.37Z" style="fill: rgb(255, 255, 255); opacity: 0.2; transform-origin: 145.495px 246.49px; transform: rotate(49.73deg);" class="animable"></path></g><path d="M149.8,246.48a4.31,4.31,0,1,1-4.31-4.3A4.31,4.31,0,0,1,149.8,246.48Z" style="fill: rgb(38, 50, 56); transform-origin: 145.49px 246.49px;" id="elvxg0gvs54s" class="animable"></path><path d="M123.79,130.55s-7.57-.09-9.41,8.45c-1.91,8.9-2.47,5.4-6.54,9.64s.38,10-6.64,13.18c0,0,5.85,5.68,17.23,3.45s9.79,5.87,24.48,3.73a7.5,7.5,0,0,1,.9-8.08c3.2-3.82.82-6.61.95-10.67s1.18-12.89-4.4-16.69-10.5-2.14-10.5-2.14A13.52,13.52,0,0,0,123.79,130.55Z" style="fill: rgb(38, 50, 56); transform-origin: 123.345px 149.932px;" id="eltaf2s35fypo" class="animable"></path><polygon points="143.56 436.07 146.42 447.87 152.64 447.87 152.92 436.07 143.56 436.07" style="fill: rgb(255, 139, 123); transform-origin: 148.24px 441.97px;" id="eldkvz352kfe9" class="animable"></polygon><path d="M170.68,456.22c-.33-3.85-2-5-4.11-5.12s-9.91-2.73-9.91-2.73-1.62-2.45-3-2.94-2.8.95-2.8.95l-3.9-.47s-1.17-1.76-2-.22c-1.24,2.38-1.09,9-1,10.53Z" style="fill: rgb(64, 123, 255); transform-origin: 157.291px 450.639px;" id="el8yxz61ng59e" class="animable"></path><path d="M170.18,455.21l-4.85,0-21.2-.11c-.27,0-.21-.41.05-.4h1.44l0-.05A3.93,3.93,0,0,0,144.2,449c-.22-.12,0-.48.25-.35a4.28,4.28,0,0,1,1.6,6l3,0,21.19.11C170.5,454.81,170.45,455.22,170.18,455.21Z" id="elfnab0bts6kk" class="animable" style="transform-origin: 157.182px 451.916px;"></path><path d="M155.49,450c1.1-1.3,2.71-1.66,3.88-.69.19.16.45-.19.26-.35-1.35-1.12-3.22-.63-4.47.83-.18.22.14.42.33.21Z" style="fill: rgb(255, 255, 255); transform-origin: 157.402px 449.217px;" id="elipfi50v1qy" class="animable"></path><path d="M157.68,450.72c1.1-1.3,2.71-1.66,3.88-.69.19.16.45-.2.26-.35-1.35-1.12-3.22-.64-4.47.83-.18.22.15.42.33.21Z" style="fill: rgb(255, 255, 255); transform-origin: 159.592px 449.936px;" id="el86svom0o4sv" class="animable"></path><path d="M159.94,451.41c1.11-1.3,2.72-1.67,3.89-.69.19.16.44-.2.26-.35-1.35-1.12-3.22-.64-4.47.83-.19.21.14.42.32.21Z" style="fill: rgb(255, 255, 255); transform-origin: 161.857px 450.625px;" id="elpnr9otyd5mc" class="animable"></path><path d="M117.85,281.48a410.22,410.22,0,0,0,8.25,47.08q2,8.63,4.45,18.4c-4.57,37.78,13.33,92.35,13.33,92.35l9.59-.21s1.2-61,.07-92.92C151.7,293.87,145.32,244,145.32,244l-26.11-.1S114.7,251.8,117.85,281.48Z" style="fill: rgb(38, 50, 56); transform-origin: 135.379px 341.605px;" id="el9lrmz3cbmsm" class="animable"></path><g id="elniwumf8gg7b"><path d="M117.85,281.48a410.22,410.22,0,0,0,8.25,47.08c5.49-20.93-4.45-65.58-4.45-65.58Z" style="opacity: 0.2; transform-origin: 122.802px 295.77px;" class="animable"></path></g><polygon points="154.57 441.36 154.87 437.25 142.08 437.25 142.81 441.36 154.57 441.36" style="fill: rgb(38, 50, 56); transform-origin: 148.475px 439.305px;" id="elrns2sgwk44" class="animable"></polygon><polygon points="103.8 436.07 106.67 447.87 112.88 447.87 113.17 436.07 103.8 436.07" style="fill: rgb(255, 139, 123); transform-origin: 108.485px 441.97px;" id="ellecatrv362" class="animable"></polygon><polygon points="115.05 441.36 115.35 437.25 102.56 437.25 103.28 441.36 115.05 441.36" style="fill: rgb(38, 50, 56); transform-origin: 108.955px 439.305px;" id="el2ax79pw873u" class="animable"></polygon><path d="M130.93,456.22c-.34-3.85-2-5-4.11-5.12s-9.92-2.73-9.92-2.73-1.62-2.45-3-2.94-2.81.95-2.81.95l-3.9-.47s-1.17-1.76-2-.22c-1.25,2.38-1.1,9-1,10.53Z" style="fill: rgb(64, 123, 255); transform-origin: 117.528px 450.639px;" id="elcnuhhl40b5" class="animable"></path><path d="M130.42,455.21l-4.84,0-21.2-.11c-.28,0-.22-.41.05-.4h1.43l0-.05a3.93,3.93,0,0,0-1.45-5.59c-.22-.12,0-.48.26-.35a4.27,4.27,0,0,1,1.59,6l3,0,21.2.11C130.75,454.81,130.69,455.22,130.42,455.21Z" id="el76n0r7807ue" class="animable" style="transform-origin: 117.424px 451.946px;"></path><path d="M115.73,450c1.1-1.3,2.71-1.66,3.89-.69.19.16.44-.19.25-.35-1.34-1.12-3.22-.63-4.46.83-.19.22.14.42.32.21Z" style="fill: rgb(255, 255, 255); transform-origin: 117.645px 449.217px;" id="elnankn8jymk" class="animable"></path><path d="M117.92,450.72c1.1-1.3,2.71-1.66,3.89-.69.19.16.44-.2.25-.35-1.34-1.12-3.22-.64-4.46.83-.19.22.14.42.32.21Z" style="fill: rgb(255, 255, 255); transform-origin: 119.835px 449.936px;" id="elc9q98mwjok" class="animable"></path><path d="M120.19,451.41c1.1-1.3,2.71-1.67,3.88-.69.19.16.45-.2.26-.35-1.35-1.12-3.22-.64-4.47.83-.18.21.15.42.33.21Z" style="fill: rgb(255, 255, 255); transform-origin: 122.102px 450.625px;" id="elyeee0bqhr5b" class="animable"></path><path d="M126.84,246.05S122,318.26,120.36,347c-1.82,32.79-5.93,88.68-6.48,92.34H104c1.13,1.11-12.72-49.06-7.13-89.9-5.24-39.07-11.61-67.67-3.4-104.46Z" style="fill: rgb(38, 50, 56); transform-origin: 108.187px 342.169px;" id="el8fl6okwdr1f" class="animable"></path><path d="M90.46,247.79c20.83,6.88,55.83,4.62,55.83-.15,0-13.43-4.76-28.54-3.48-37.29,9.85-6.89,2.15-13.12,3-23.33a15.13,15.13,0,0,0-12.56-16.1c-1.77-.3-3.62-.6-5.43-.83-.37-.06-.74-.1-1.1-.14a110.41,110.41,0,0,0-14.56-.69c-1.78,0-3.62,0-5.55.06s-3.79.11-5.57.24a11.2,11.2,0,0,0-10.24,13.13,211.93,211.93,0,0,1,3,27.11c.08,1.88.15,3.69.17,5.47a141.28,141.28,0,0,1-.85,18.64c0,.11,0,.23,0,.34q-.45,3.69-1.09,6.81c-.13.66-.27,1.28-.42,1.89C91.31,244.24,90.81,246.51,90.46,247.79Z" style="fill: rgb(64, 123, 255); transform-origin: 119.168px 210.685px;" id="el2znvy13w0m4" class="animable"></path><g id="elw4qs04ul039"><path d="M146.29,247.64c0,4.77-35,7-55.82.15.34-1.28.84-3.55,1.14-4.84.15-.61.29-1.23.42-1.89q.64-3.12,1.09-6.81c0-.11,0-.23,0-.34A143.15,143.15,0,0,0,94,215.27c0-1.78-.08-3.59-.17-5.47-.12-2.75-.3-5.58-.57-8.5-.16-1.88-.35-3.8-.58-5.74-.48-4.16-1.1-8.46-1.88-12.87a11.2,11.2,0,0,1,10.24-13.13c1.78-.13,3.65-.21,5.57-.24s3.77-.06,5.55-.06a110.41,110.41,0,0,1,14.56.69c.37,0,.73.08,1.1.14,1.81.23,3.66.53,5.44.83A15.13,15.13,0,0,1,145.82,187c-.85,10.21,6.84,16.44-3,23.33C141.54,219.1,146.29,234.21,146.29,247.64Z" style="fill: rgb(255, 255, 255); opacity: 0.2; transform-origin: 119.176px 210.679px;" class="animable"></path></g><g id="el1x4hn01lij7"><path d="M103.66,185.65,93.27,201.3c-.16-1.88-.35-3.8-.58-5.74v0Z" style="opacity: 0.2; transform-origin: 98.175px 193.475px;" class="animable"></path></g><path d="M127.83,187.13a.67.67,0,0,0,1.34,0,.67.67,0,0,0-1.34,0Z" style="fill: rgb(64, 123, 255); transform-origin: 128.5px 187.13px;" id="elj0gnzhbi4zk" class="animable"></path><circle cx="128.91" cy="193.13" r="0.67" style="fill: rgb(64, 123, 255); transform-origin: 128.91px 193.13px;" id="elhdi23nznirr" class="animable"></circle><circle cx="128.91" cy="199.24" r="0.67" style="fill: rgb(64, 123, 255); transform-origin: 128.91px 199.24px;" id="ellpj9o7pmha" class="animable"></circle><path d="M112.17,169.26c4.93,8.67,16.53,13.86,16.53,13.86,1.57-3.89,1.08-10.11-.87-13-.37-.06-.74-.1-1.1-.14A110.41,110.41,0,0,0,112.17,169.26Z" style="fill: rgb(255, 139, 123); transform-origin: 120.902px 176.182px;" id="elbz88oia2nrn" class="animable"></path><path d="M128,172.67a1.75,1.75,0,0,0,.19.39c1.67,2.65-.15,5.06-3,4.86a5.59,5.59,0,0,1-.82-.12,5.12,5.12,0,0,1-2.72-1.51h0a63,63,0,0,0-7.18-6.6c4.34-2.33,5.93-10.59,6.33-15.75l6.73,8.58,1.26,1.87a15.27,15.27,0,0,0-1.46,3.31A5.39,5.39,0,0,0,128,172.67Z" style="fill: rgb(255, 139, 123); transform-origin: 121.649px 165.936px;" id="elw55r35ipc9e" class="animable"></path><path d="M115.05,169.26s-4-1-7.21,0l6.54,11.24c3.45-2.51,7.39.75,14.32,2.62A36.06,36.06,0,0,1,115.05,169.26Z" style="fill: rgb(64, 123, 255); transform-origin: 118.27px 175.968px;" id="el9btkgxbp6fk" class="animable"></path><path d="M115.05,169.26s-4-1-7.21,0l6.54,11.24c3.45-2.51,7.39.75,14.32,2.62A36.06,36.06,0,0,1,115.05,169.26Z" style="fill: rgb(64, 123, 255); transform-origin: 118.27px 175.968px;" id="ely3cnpyb6lyd" class="animable"></path><path d="M127,169.77s4-.73,6.31,1.15a62.43,62.43,0,0,1,1.88,8.85s-3.85-1.92-6.44,3.35C128.7,183.12,130,174.73,127,169.77Z" style="fill: rgb(64, 123, 255); transform-origin: 131.095px 176.375px;" id="elpfvfk7p1i7" class="animable"></path><path d="M127,169.77s4-.73,6.31,1.15a62.43,62.43,0,0,1,1.88,8.85s-3.85-1.92-6.44,3.35C128.7,183.12,130,174.73,127,169.77Z" style="fill: rgb(64, 123, 255); transform-origin: 131.095px 176.375px;" id="eljc9bwj1zmpt" class="animable"></path><g id="eldbd8s7lchh"><g style="opacity: 0.2; transform-origin: 125.95px 165.1px;" class="animable"><path d="M127.24,167.69a15.27,15.27,0,0,1,1.46-3.31l-1.26-1.87-4.24.1A10.06,10.06,0,0,0,127.24,167.69Z" id="el6t5x57dx6qa" class="animable" style="transform-origin: 125.95px 165.1px;"></path></g></g><path d="M119.47,144.74c-.67,8.48-1.13,12,2.42,16.95,5.35,7.37,15.72,6.3,18.86-1.81,2.83-7.3,3.46-19.94-4.14-24.42s-16.46.8-17.14,9.28" style="fill: rgb(255, 139, 123); transform-origin: 130.855px 150.234px;" id="elgfp34ca8aak" class="animable"></path><path d="M121.34,150.29c-4.25-1.13-2.58-5.52-2.58-5.52l6.26,1S125.59,151.41,121.34,150.29Z" style="fill: rgb(38, 50, 56); transform-origin: 121.741px 147.604px;" id="ely7e9wsdtzxl" class="animable"></path><path d="M138.5,136.25s-.11,4.69-5.86,4.94-5.25,8.75-11.69,7.4-3.25-9.34-.5-11.47S130,128.62,138.5,136.25Z" style="fill: rgb(38, 50, 56); transform-origin: 127.842px 140.668px;" id="ellyefz1zzqn" class="animable"></path><path d="M137.22,157.81s-4.13-1.87-5-3.67c0,0-.6,3.22,1.56,4.4A2.61,2.61,0,0,0,137.22,157.81Z" style="fill: rgb(255, 255, 255); transform-origin: 134.682px 156.519px;" id="elvowkejd8bb9" class="animable"></path><path d="M133.42,148.52c-.09.69.19,1.29.64,1.35s.89-.44,1-1.12-.18-1.29-.63-1.35-.89.44-1,1.12" style="fill: rgb(38, 50, 56); transform-origin: 134.243px 148.635px;" id="elsa8fblzlta" class="animable"></path><path d="M140.38,149.65c-.1.69.19,1.29.63,1.36s.89-.45,1-1.13-.19-1.29-.64-1.35-.89.44-1,1.12" style="fill: rgb(38, 50, 56); transform-origin: 141.197px 149.771px;" id="eltxpp4eg7pmq" class="animable"></path><path d="M141.16,148.54l1.71-.25s-1,1.17-1.71.25" style="fill: rgb(38, 50, 56); transform-origin: 142.015px 148.591px;" id="elkfjpoi27nad" class="animable"></path><path d="M137.83,149.51s.92,2,2,3.73a1,1,0,0,1-.55,1.53,10.07,10.07,0,0,1-2.23.43Z" style="fill: rgb(255, 86, 82); transform-origin: 138.528px 152.355px;" id="elkyfpcdnul9" class="animable"></path><path d="M115.67,150.14a5.43,5.43,0,0,0,2.89,3.43c1.8.79,3-1.13,2.78-3.28-.21-1.94-1.39-4.69-3.32-4.54s-3,2.43-2.35,4.39" style="fill: rgb(255, 139, 123); transform-origin: 118.423px 149.748px;" id="el6fvvctg3ak2" class="animable"></path><path d="M131.55,145.78a.38.38,0,0,0,.29-.12,3.26,3.26,0,0,1,2.74-1.07.41.41,0,0,0,.14-.8,4,4,0,0,0-3.47,1.31.41.41,0,0,0,0,.57.38.38,0,0,0,.28.11" style="fill: rgb(38, 50, 56); transform-origin: 133.07px 144.77px;" id="eljvyw57qzcvj" class="animable"></path><path d="M143.57,147a.44.44,0,0,0,.29-.08.42.42,0,0,0,.06-.58,4,4,0,0,0-3.35-1.57.4.4,0,0,0-.37.44.41.41,0,0,0,.45.37,3.19,3.19,0,0,1,2.64,1.27.39.39,0,0,0,.28.15" style="fill: rgb(38, 50, 56); transform-origin: 142.104px 145.884px;" id="el91fr2rtwfmg" class="animable"></path><path d="M134.21,147.41l1.71-.25s-1,1.17-1.71.25" style="fill: rgb(38, 50, 56); transform-origin: 135.065px 147.461px;" id="elfhts4ao6nit" class="animable"></path><line x1="118.76" y1="144.77" x2="125.01" y2="145.74" style="fill: rgb(38, 50, 56); transform-origin: 121.885px 145.255px;" id="elbvkhvvrn6vd" class="animable"></line><path d="M82.22,222.32c3.49,5.6,7.38,11.23,11.19,16.78l-5.89,5.3a159.81,159.81,0,0,1-14.81-15.08,81,81,0,0,1-6.7-8.83c-.53-.83-1.05-1.69-1.55-2.65A22.47,22.47,0,0,1,63,214.55a14,14,0,0,1-.57-2.28,10.42,10.42,0,0,1,0-3.49,12.91,12.91,0,0,1,.91-3,19.93,19.93,0,0,1,.92-1.85,42.93,42.93,0,0,1,3.54-5.16c1.18-1.51,2.36-2.92,3.55-4.29,2.42-2.7,4.84-5.29,7.35-7.77,5-5,10.08-9.66,15.55-14.14l10.39,12.17-15,13.46c-2.45,2.27-4.91,4.49-7.2,6.78-1.16,1.12-2.29,2.25-3.33,3.37a36.43,36.43,0,0,0-2.6,3.06l0,.05c.07.19.14.4.22.61.23.59.51,1.24.81,1.91A90,90,0,0,0,82.22,222.32Z" style="fill: rgb(64, 123, 255); transform-origin: 83.4614px 208.485px;" id="el3xiuhtw4fpe" class="animable"></path><g id="eltya92wxreup"><path d="M82.22,222.32c3.49,5.6,7.38,11.23,11.19,16.78l-5.89,5.3a159.81,159.81,0,0,1-14.81-15.08,81,81,0,0,1-6.7-8.83c-.53-.83-1.05-1.69-1.55-2.65A22.47,22.47,0,0,1,63,214.55a14,14,0,0,1-.57-2.28,10.42,10.42,0,0,1,0-3.49,12.91,12.91,0,0,1,.91-3,19.93,19.93,0,0,1,.92-1.85,42.93,42.93,0,0,1,3.54-5.16c1.18-1.51,2.36-2.92,3.55-4.29,2.42-2.7,4.84-5.29,7.35-7.77,5-5,10.08-9.66,15.55-14.14l10.39,12.17-15,13.46c-2.45,2.27-4.91,4.49-7.2,6.78-1.16,1.12-2.29,2.25-3.33,3.37a36.43,36.43,0,0,0-2.6,3.06l0,.05c.07.19.14.4.22.61.23.59.51,1.24.81,1.91A90,90,0,0,0,82.22,222.32Z" style="fill: rgb(255, 255, 255); opacity: 0.2; transform-origin: 83.4614px 208.485px;" class="animable"></path></g><path d="M93,236.62s6.64,2.46,7.66,3.76-5.49,8.64-8,9.66-1.22-2-1.22-2-3.27.77-4.8-1.72S86.91,237,93,236.62Z" style="fill: rgb(255, 139, 123); transform-origin: 93.4457px 243.435px;" id="elsw0bt9ajsfb" class="animable"></path><path d="M163.73,255.64s.61-.14,1.77-1.73a6.49,6.49,0,0,0,1.1-3.61l-4.2,3.56s-3.73-1.43-6,.26c-4.64,3.41-3.33,7.25-2.79,8.36s4.37.43,7-1.78A9.13,9.13,0,0,0,163.73,255.64Z" style="fill: rgb(255, 139, 123); transform-origin: 159.81px 256.652px;" id="elsmardq5mrwm" class="animable"></path></g><defs>     <filter id="active" height="200%">         <feMorphology in="SourceAlpha" result="DILATED" operator="dilate" radius="2"></feMorphology>                <feFlood flood-color="#32DFEC" flood-opacity="1" result="PINK"></feFlood>        <feComposite in="PINK" in2="DILATED" operator="in" result="OUTLINE"></feComposite>        <feMerge>            <feMergeNode in="OUTLINE"></feMergeNode>            <feMergeNode in="SourceGraphic"></feMergeNode>        </feMerge>    </filter>    <filter id="hover" height="200%">        <feMorphology in="SourceAlpha" result="DILATED" operator="dilate" radius="2"></feMorphology>                <feFlood flood-color="#ff0000" flood-opacity="0.5" result="PINK"></feFlood>        <feComposite in="PINK" in2="DILATED" operator="in" result="OUTLINE"></feComposite>        <feMerge>            <feMergeNode in="OUTLINE"></feMergeNode>            <feMergeNode in="SourceGraphic"></feMergeNode>        </feMerge>            <feColorMatrix type="matrix" values="0   0   0   0   0                0   1   0   0   0                0   0   0   0   0                0   0   0   1   0 "></feColorMatrix>    </filter></defs></svg>